<?xml version="1.0" encoding="UTF-8" standalone="no"?>
<svg
   xmlns:dc="http://purl.org/dc/elements/1.1/"
   xmlns:cc="http://creativecommons.org/ns#"
   xmlns:rdf="http://www.w3.org/1999/02/22-rdf-syntax-ns#"
   xmlns:svg="http://www.w3.org/2000/svg"
   xmlns="http://www.w3.org/2000/svg"
   xmlns:sodipodi="http://sodipodi.sourceforge.net/DTD/sodipodi-0.dtd"
   xmlns:inkscape="http://www.inkscape.org/namespaces/inkscape"
   version="1.1"
   id="Layer_1"
   x="0px"
   y="0px"
   viewBox="0 0 2640.6 1154.5"
   style="enable-background:new 0 0 2640.6 1154.5;"
   xml:space="preserve"
   sodipodi:docname="city.svg"
   inkscape:version="1.0.1 (3bc2e813f5, 2020-09-07)"><metadata
   id="metadata325"><rdf:RDF><cc:Work
       rdf:about=""><dc:format>image/svg+xml</dc:format><dc:type
         rdf:resource="http://purl.org/dc/dcmitype/StillImage" /></cc:Work></rdf:RDF></metadata><defs
   id="defs323" /><sodipodi:namedview
   pagecolor="#ffffff"
   bordercolor="#666666"
   borderopacity="1"
   objecttolerance="10"
   gridtolerance="10"
   guidetolerance="10"
   inkscape:pageopacity="0"
   inkscape:pageshadow="2"
   inkscape:window-width="1366"
   inkscape:window-height="715"
   id="namedview321"
   showgrid="false"
   inkscape:zoom="0.39460727"
   inkscape:cx="1320.3"
   inkscape:cy="678.61661"
   inkscape:window-x="-8"
   inkscape:window-y="-8"
   inkscape:window-maximized="1"
   inkscape:current-layer="Layer_1" />
<style
   type="text/css"
   id="style2">
	.st0{fill:#BDBFC1;}
	.st1{fill:#96989A;}
	.st2{fill:#A9ABAE;}
	.st3{fill:#848688;}
	.st4{fill:#CECFD1;}
	.st5{fill:#A6A9AB;}
	.st6{fill:#727376;}
	.st7{fill:#939497;}
	.st8{fill:#B0B1B3;}
	.st9{opacity:0.73;fill:#98999B;enable-background:new    ;}
	.st10{opacity:0.79;fill:#A5A6A7;enable-background:new    ;}
	.st11{opacity:0.7;fill:#929394;enable-background:new    ;}
	.st12{opacity:0.55;fill:#727374;enable-background:new    ;}
</style>
<g
   id="g318"
   transform="matrix(1.0366108,0,0,1.0821725,-39.447623,22.250737)">
	<path
   class="st0"
   d="m 151.8,40.6 c 1.5,-1.6 3.5,-3.4 5.8,-2.9 20.6,8.1 41.3,15.9 61.9,24.1 2.2,0.8 4.4,2 6.9,1.6 5.7,-0.8 11.4,-2 17,-3.3 3.9,-0.8 7.7,-2.8 11.8,-2.5 3,-0.1 5.6,1.7 8.5,2.5 1.8,0.6 4,0.9 5.2,2.6 1.1,1.1 0.9,3 -0.2,4 -2.1,3 -5.8,4.3 -9,5.6 -8.5,3.2 -17.5,4.8 -26.4,6.2 -1.2,0.1 -2.4,0.5 -2.8,1.7 -3.7,8.4 -7.7,16.8 -11.5,25.2 -1.1,2.8 -4.7,2.9 -7.2,3.1 0,-5.3 0.1,-10.6 0,-15.9 0,-1.5 -0.1,-3.2 -1.5,-4.1 -2.3,-1.7 -4.2,-3.8 -6.5,-5.3 -3.2,-0.2 -6.3,0.5 -9.5,0.6 -7.5,0.5 -15,-0.5 -22.6,-0.2 -0.5,2.2 -0.6,4.6 -2.1,6.5 -0.6,0.9 -1.9,0.7 -2.6,0 -2.6,-2.2 -3.9,-5.4 -6.3,-7.7 -1.5,-0.7 -3.3,-0.7 -4.6,-1.8 0.3,-0.8 0.6,-1.7 0.9,-2.5 -3.9,-3.4 -7.6,-7.1 -11.4,-10.5 -0.5,-0.6 -1.7,-1.2 -1.3,-2.1 2.2,-1.1 4.8,-0.6 7,0.4 3.6,1.6 6.8,4 10.7,5 -0.3,-3.3 -0.8,-6.5 -0.6,-9.8 1.9,-0.3 4.1,-0.5 5.7,0.8 3.3,2.7 5.8,6.2 8.8,9.3 1.1,1.4 3,0.7 4.5,0.5 3.9,-0.9 8,-1 11.8,-2.5 -3.7,-4.3 -7.9,-8.2 -12.9,-11 -9.1,-6.1 -18.5,-11.5 -27.5,-17.6 z"
   id="path4" />
	<path
   class="st1"
   d="m 2217.3,166.6 c 4.4,0.4 7.7,3.5 11.1,6 0,2.2 0,4.5 0.5,6.7 2.3,0.9 4.8,0.5 7.2,0.2 2.1,0.5 2.7,3.1 3.7,4.7 -1.4,-0.5 -2.7,-1.2 -4.1,-1.4 -1.4,0 -2.4,1.1 -3.5,1.9 1.2,1.5 2.7,3.1 2.5,5.1 -0.2,2.9 -2.3,5.2 -4.2,7.3 -0.7,-1.1 -1.5,-2.2 -2,-3.4 -0.7,-2.1 -0.3,-4.5 -1.6,-6.4 -0.7,-1.2 -2.3,-1.6 -3.6,-1.4 -2.4,0.2 -4.8,1.1 -7.2,1.6 -1.4,-0.8 -3,-1.1 -4.5,-1.2 2.8,-1.1 5.8,-1.9 8,-4 1.8,-1.6 1.8,-4.2 1.6,-6.4 -0.1,-3.5 -3.2,-5.9 -3.9,-9.3 z"
   id="path6" />
	<path
   class="st1"
   d="m 2226.7,226.5 c 3.8,0.8 7.6,1.9 11.2,3.6 4.3,2 7.3,5.9 11.3,8.4 1.5,1.1 3.1,-0.7 4.7,-1 1.1,0.4 1.1,1.8 1.7,2.7 4.5,0 9.4,-0.2 13.2,2.7 -5.1,1 -10.3,-0.1 -15.3,1.3 -3,0.6 -3.6,4.1 -5.3,6.2 -1.4,-0.4 -3,-0.6 -4,-1.8 -1.2,-1.3 -1.6,-3.1 -2.2,-4.7 1.8,-0.2 3.5,-0.3 5.3,-0.4 -2.1,-2.2 -4.8,-3.6 -6.9,-5.7 -4.2,-4.2 -10.1,-6.4 -13.7,-11.3 z"
   id="path8" />
	<path
   class="st1"
   d="m 2292.3,234.2 c 5.9,-1.9 12.1,-2 18.2,-2.7 -3.7,3.2 -8.9,3.5 -13.4,5.1 -1.7,1.5 -2.2,4.1 -4.2,5.5 -2.1,0.9 -4.3,0.8 -6.5,0.5 0.1,-0.6 0.2,-1.9 0.3,-2.6 -1.6,1.2 -2.4,3.1 -4.1,4.2 -3.8,2.8 -6.5,6.9 -11,8.6 1.4,-2.1 3.1,-4 4.6,-6 1.9,-2.4 3.7,-5 6.3,-6.6 3.4,-2 6.1,-4.9 9.8,-6 z"
   id="path10" />
	<path
   class="st1"
   d="m 2307.5,251.1 c 2.1,-1.3 4.6,-1.6 7.1,-1.8 2.2,0 4.5,-0.1 6.4,1.1 -2.9,0.6 -6.1,0.4 -8.8,1.9 -2.2,1.4 -2.6,4.2 -3.1,6.5 1.3,0.4 2.7,0.8 3.9,1.7 -4.5,1.5 -9.2,2.5 -14,1.7 -0.4,1.5 -0.8,2.9 -1.3,4.4 -1.8,-1.5 -3.5,-3.3 -3.7,-5.7 -0.3,-0.8 0.3,-1.7 1.2,-1.5 2.5,-0.4 5.2,0.3 7.7,-0.3 3.2,-1.7 1.8,-6.3 4.6,-8 z"
   id="path12" />
	<path
   class="st1"
   d="m 2247.6,325 c 2.4,-0.8 4.8,0.2 7.1,1 2.1,0.8 4.1,-0.7 6.2,-0.6 0.6,0.3 1.2,0.7 1.9,1 3.3,-0.1 6.4,-3.1 9.7,-1.4 4.3,2 8.7,4.1 12,7.6 -4.7,-1.1 -9,-4.1 -14,-3.8 -2.8,0.4 -5.7,0.8 -8.3,1.8 -2.3,0.7 -1.7,3.5 -2.1,5.4 -1.4,-0.1 -2.7,-0.2 -4,-0.2 0.1,-1.7 0.3,-3.4 0.5,-5 -4.2,-1.7 -9,-2.4 -13.4,-1.2 -3.2,0.7 -6,2.4 -9.2,3.3 4.2,-3.2 8.5,-6.4 13.6,-7.9 z"
   id="path14" />
	<path
   class="st1"
   d="m 2348.8,345.8 c 4.6,-2.5 9.8,-3.6 14.9,-4.4 -1.1,1.6 -2.7,2.8 -4.5,3.7 0.4,2.7 0.3,5.5 0.5,8.2 0,1 0.8,1.8 1.7,2.1 2.6,0.8 5.4,0.2 7.9,1.6 -0.5,0.7 -0.8,1.5 -1.4,2.2 -1.3,0.2 -2.6,-0.1 -3.8,-0.3 0.8,0.6 1.5,1.4 2.1,2.2 -3.8,-0.9 -7.9,-2.2 -11.6,-0.5 -1.6,0.7 -2.1,2.4 -2.3,3.9 1.1,1.3 1.2,3 0.5,4.6 -0.9,2.5 -1.3,5.2 -1.9,7.8 -5.6,-3.9 -8.1,-11.3 -7.1,-17.9 -1.1,-0.1 -2.3,-0.1 -3.4,-0.1 1.9,-1.3 3.8,-2.8 6.1,-3.6 1.8,-0.6 3.6,-1.9 3.9,-3.9 0.3,-2 -0.9,-3.8 -1.6,-5.6 z"
   id="path16" />
	<path
   class="st1"
   d="m 2267,344.7 c 4.4,0.5 7.9,3.6 11,6.4 -0.2,2.1 -0.7,4.6 1.1,6.2 1.7,1.9 4.2,0.1 6.3,0.4 2.1,0.7 3,3 4,4.7 -1.5,-0.4 -3,-1.2 -4.6,-1.1 -1.2,0.2 -2.3,1 -3.3,1.6 1,1.4 2.7,2.7 2.6,4.6 -0.1,3 -2,5.5 -3.4,8 -2.2,-1.3 -3.1,-3.9 -3.1,-6.3 0,-1.9 -0.9,-3.8 -2.4,-5 -3.2,-0.3 -6.3,0.9 -9.4,1.4 -1.3,-0.9 -2.9,-1.1 -4.4,-1.3 2.6,-1 5.2,-2.2 7.7,-3.6 2.5,-1.3 1.6,-4.6 1.6,-6.8 -0.1,-3.6 -3.5,-5.8 -3.7,-9.2 z"
   id="path18" />
	<path
   class="st1"
   d="m 2420.2,392.6 c 4.5,1.1 9,2.7 13.2,4.8 3.8,1.8 6.1,5.8 9.9,7.5 1.6,-0.1 3.1,-1 4.8,-1.2 0.1,0.9 0.3,1.9 0.5,2.8 2.9,-0.1 6,-0.7 8.7,0.6 1.3,0.6 2.6,1.2 3.9,1.8 -5.4,1.8 -11.9,-0.9 -16.8,2.7 -1.3,1.6 -1.6,4 -3.5,5.1 -0.1,-0.4 -0.3,-1.1 -0.4,-1.5 -0.7,0.4 -1.3,0.8 -2,1.2 -1.3,-2.1 -2.6,-4.1 -3.3,-6.4 1.7,-0.2 3.4,-0.3 5.2,-0.5 -6.3,-6.2 -14.2,-10.5 -20.2,-16.9 z"
   id="path20" />
	<path
   class="st1"
   d="m 2480.1,398.3 c 2.2,-3.1 6,-4.2 9.7,-4.5 -2.3,4.5 -1.2,9.6 -2,14.3 2.1,0.2 4.3,0.6 6.4,1.2 -0.4,0.9 -0.7,1.8 -1,2.7 -2.6,-0.3 -5.1,-0.7 -7.7,-1 -1.5,2.4 -3.5,4.4 -4.4,7.1 -0.9,2.4 -1.4,4.9 -2.2,7.3 -1.6,-1.8 -2.8,-3.9 -3.3,-6.2 -0.5,-2 -1,-4.2 0,-6.1 0.8,-1.4 1.8,-2.6 2.7,-3.9 -1.5,-0.5 -3.1,-1.1 -4.6,-1.7 2.1,-1.4 4.7,-1.6 6.8,-3 1.2,-1.8 0,-4.2 -0.4,-6.2 z"
   id="path22" />
	<path
   class="st1"
   d="m 2354.1,417.5 c 2,-0.6 4.2,-0.1 6.2,0.4 2.6,0.7 5.3,1.3 7.5,2.7 -4,1 -8.1,-0.2 -12,0.7 -2.3,0.5 -4.5,1 -6.7,1.6 0.4,1.2 0.9,2.4 1.1,3.7 -1.3,0.6 -2.6,1 -4,0.9 -0.8,-1.3 -0.6,-2.9 -0.8,-4.3 -2.4,-0.4 -4.8,-0.7 -7.2,-0.6 -3.5,0.1 -6.9,1 -10.4,1 1.9,-2.1 4.7,-2.9 7.2,-4.2 2,-1.1 4.4,-0.7 6.6,-0.3 1.9,0.4 3.7,-1.2 5.7,-0.5 2.3,0.7 4.6,-0.5 6.8,-1.1 z"
   id="path24" />
	<path
   class="st2"
   d="m 2191.4,445.1 c 3.9,0.1 7.8,0.6 11.8,0.5 -3.4,2.1 -5.5,6.2 -4.4,10.1 0.5,2.7 2.7,4.6 4.9,6 -3.4,5.9 -7.1,11.6 -10.6,17.4 -2.8,-0.7 -5.6,-1.4 -8.4,-2.1 -0.1,-8.8 -0.2,-17.5 -0.2,-26.3 2.3,-1.9 4.6,-3.7 6.9,-5.6 z"
   id="path26" />
	<path
   class="st3"
   d="m 2203.1,445.6 c 2.6,-0.8 5.4,-0.6 7.8,0.5 2.4,2.3 4.2,5.7 3.4,9.1 -0.4,2.9 -2.6,5 -4.9,6.5 2.8,6.3 5.9,12.4 8.8,18.6 0.6,1.3 1.2,2.5 1.8,3.8 -3.9,-0.2 -7.8,-0.4 -11.6,-0.7 4.9,10.7 10.1,21.3 15.2,32 4.5,0.6 8.8,1.9 13.3,2.3 5.3,-4.7 10.2,-9.8 15.4,-14.6 3.1,-3.1 6.5,-5.9 9.4,-9.2 -3.5,-1.6 -7.4,-2.3 -10.8,-4 5.8,-5.3 11.4,-10.8 17.1,-16.3 -1.7,-2.1 -3.5,-4.4 -3.3,-7.2 -0.2,-3.3 1.9,-6.2 4.5,-7.9 2.7,-1 5.6,-0.5 8.2,0.4 1.2,1.6 2.6,3.2 3.1,5.2 0.8,2.8 0,6 -2,8.2 -1.3,1.4 -3.2,2 -4.9,2.7 1.1,6.7 2.6,13.3 3.9,20 0.3,1.5 0.6,3 0.9,4.6 -3.7,-1.3 -7.4,-2.6 -11.1,-3.8 2.2,11.1 4.4,22.2 6.6,33.4 0.1,2 2.3,2.4 3.7,3.2 2.9,1.2 5.6,3 8.6,4.2 1.7,-0.4 3.1,-1.5 4.6,-2.3 8.1,-4.5 16.1,-9 24.2,-13.4 0.3,-0.2 0.8,-0.5 1.1,-0.6 -1.3,-1 -2.7,-2 -4.1,-3 -1.9,-1.3 -3.8,-2.6 -5.6,-3.9 1.8,-1 3.6,-2 5.4,-3 5.1,-2.8 10.2,-5.6 15.3,-8.5 -0.9,-2.3 -1.9,-4.9 -1.2,-7.4 0.5,-2.4 2.3,-4.1 3.8,-5.9 2.7,-0.7 5.5,-0.9 8.1,0.3 2,1.7 3.7,4 3.9,6.7 0.4,3.4 -1.4,6.8 -4.4,8.5 -1.7,0.9 -3.6,0.8 -5.4,0.9 -0.3,6.7 -0.6,13.4 -0.8,20.1 -0.1,1.6 -0.2,3.2 -0.2,4.8 -3.3,-2.2 -6.6,-4.4 -9.9,-6.7 -0.5,12 -1,24.1 -1.5,36.1 3.7,3.2 7.4,6.5 11,9.9 11,-2.6 22,-5.1 33,-7.7 -2.6,-3.1 -5.3,-6.1 -7.8,-9.2 2.8,-0.7 5.7,-1.3 8.5,-2 4.7,-1.2 9.5,-2.1 14.2,-3.3 -0.2,-2.2 -0.6,-4.5 0.3,-6.6 0.7,-2 2.3,-3.4 3.9,-4.7 2.7,-0.9 5.6,-0.6 8.2,0.5 1.7,1.9 3.3,4.1 3.4,6.8 0.3,3.6 -1.9,7.4 -5.3,8.7 -2.2,0.8 -4.5,0.2 -6.6,-0.1 -1.9,6.5 -3.9,13 -5.8,19.6 -0.4,1.3 -0.8,2.6 -1.2,4 -2.6,-2.7 -4.5,-6.3 -8.1,-7.9 -3.6,11 -6.7,22.1 -10,33.1 2.7,3.8 5.2,7.7 7.7,11.7 11.2,0.6 22.3,1.1 33.5,1.6 -1.8,-3.7 -3.6,-7.3 -5.4,-11 1.3,0.1 2.7,0.1 4.1,0.2 6.4,0.4 12.8,0.6 19.2,0.7 0,-3.5 1.7,-6.6 4.2,-8.9 2.6,-0.6 5.2,-1 7.7,0.2 3.2,2 5.1,6 4.1,9.8 -0.8,3.5 -3.9,6.4 -7.5,6.5 -2.2,0.1 -4,-1.1 -5.8,-2 -3.8,6 -7.3,12.2 -11.1,18.3 -0.5,0.9 -1.1,1.7 -1.5,2.6 -0.7,-1.2 -1.3,-2.4 -1.9,-3.6 -0.3,-0.1 -1,-0.2 -1.3,-0.3 -0.1,-2.5 -1,-4.9 -2.2,-7.1 -5.8,9.6 -11.5,19.2 -17.3,28.8 -1.4,1.8 0.1,3.8 0.7,5.5 1.5,3.2 2,6.8 3.5,9.9 3.9,1.7 8.1,2.8 12.2,4.3 6.5,2.2 12.9,4.4 19.4,6.5 -0.8,-4.1 -1.7,-8.1 -2.5,-12.1 3.6,1.2 7.2,2.4 10.8,3.6 3.8,1.2 7.6,2.6 11.5,3.8 0.9,-2.8 2.4,-5.5 5.2,-6.8 2.4,-0.8 5,-0.5 7.3,0.5 3.3,2.6 4.9,7.5 2.9,11.4 -1.7,3.9 -6.9,5.9 -10.7,3.8 -1.4,-0.8 -2.4,-1.9 -3.5,-2.9 -5,4.8 -9.9,9.7 -14.9,14.4 -0.8,0.7 -1.6,1.5 -2.4,2.3 -0.9,-4 -1.7,-8.1 -2.5,-12.1 -6.6,6.4 -13.1,12.8 -19.7,19.1 -1.8,1.7 -3.5,3.4 -5.2,5.1 0.6,5.1 0.9,10.2 1.2,15.4 6.6,4.5 13.2,9.1 19.9,13.6 2.7,1.9 5.5,3.8 8.3,5.7 0.2,-4 0.2,-8.1 0.6,-12.1 4.5,2.3 8.3,5.8 12.8,8.3 2.3,1.7 4.5,3.4 6.9,4.8 1.2,-1.8 2.6,-3.5 4.6,-4.6 2.4,-0.7 4.9,-0.5 7.2,0.5 2.4,2.1 4.2,5.1 3.8,8.4 -0.3,4.5 -4.8,8.5 -9.4,7.5 -3.2,-0.4 -5.2,-3.1 -6.5,-5.8 -4.8,2.3 -9.4,5.1 -14.1,7.6 -2.1,1.1 -4.1,2.3 -6.2,3.3 l -0.5,0.3 c 0.2,-2.1 0.2,-4.1 0.3,-6.2 0.1,-2 0.1,-4.1 0.2,-6.1 -1,0.5 -2,1.1 -3,1.6 -9,4.9 -18,9.8 -26.9,14.8 -0.6,3.8 -1.1,7.5 -1.9,11.3 -0.2,1.4 -0.8,3 0.4,4.2 7.2,8.4 14.4,16.8 21.6,25.1 1.2,-3.9 2.3,-7.9 3.6,-11.7 3.8,4.2 7.4,8.6 11.1,12.9 0.8,0.9 1.5,1.8 2.3,2.7 0.8,0.9 1.6,1.8 2.5,2.7 1,-0.9 2.1,-1.8 3.2,-2.6 2.5,-0.9 5.2,-0.5 7.7,0.5 1.8,1.8 3.4,4 3.5,6.6 0.4,3.8 -2,7.9 -5.7,9 -2.9,1 -6.2,-0.1 -8.2,-2.3 -1.4,-1.5 -1.6,-3.6 -2.5,-5.4 -4.7,0.7 -9.2,2.1 -13.8,3.1 -3,0.7 -6,1.4 -8.9,2.1 1.1,-4 2.3,-7.9 3.5,-11.8 -11,2.6 -22,5 -32.9,7.7 -1.7,4.3 -3.7,8.6 -5.7,12.8 5.1,10.5 10.2,21 15.4,31.5 2.2,-3.3 4.2,-6.9 6.3,-10.3 3.8,7.2 7.1,14.7 10.9,21.9 1.4,-0.6 2.9,-1.3 4.5,-1.4 1.7,-0.1 3.3,0.6 5,1.1 1.7,1.8 3.3,3.9 3.5,6.4 0.4,3.5 -1.4,7.4 -4.7,8.9 -3.3,1.6 -7.5,0.4 -9.6,-2.6 -1.6,-2 -1.7,-4.8 -1.8,-7.3 -4.7,-0.2 -9.4,-0.5 -14.1,-0.7 -3.1,-0.1 -6.2,-0.3 -9.3,-0.4 2,-3.5 4.3,-6.9 6.2,-10.5 -9,-0.4 -18.1,-0.8 -27.1,-1.3 -2.2,-0.1 -4.4,-0.5 -6.5,-0.1 -3.2,3.8 -6.1,7.9 -9.4,11.6 2.4,11.6 4.7,23.2 7.1,34.7 3,-2.7 5.7,-5.6 8.7,-8.3 1.7,8.1 3.3,16.2 5,24.3 2.7,-0.7 5.3,-0.1 7.9,0.8 1.6,2.1 3.3,4.4 3.3,7.2 0.1,3.9 -2.7,7.9 -6.6,8.6 -3.6,0.7 -7.4,-1.5 -8.8,-4.9 -1.1,-2.4 -0.5,-5.2 -0.1,-7.7 -3.1,-1 -6.2,-2.1 -9.3,-3.1 -4.3,-1.4 -8.5,-2.9 -12.8,-4.3 2.8,-2.9 5.8,-5.6 8.6,-8.4 -10.7,-3.7 -21.4,-7.3 -32.1,-10.9 -3.6,2.8 -7.4,5.6 -11.2,8.2 -0.5,11.9 -1,23.8 -1.5,35.6 3.5,-1.8 6.9,-3.8 10.4,-5.6 -0.3,8.3 -0.7,16.6 -1.1,24.8 1.8,0.2 3.7,0.6 5.5,1.3 1.8,1.9 3.5,4.1 3.6,6.9 0.4,4.3 -2.9,8.9 -7.4,9.1 -4.5,0.5 -8.6,-3.6 -8.6,-8 -0.3,-2.3 1.2,-4.3 1.7,-6.5 -0.9,-0.9 -2,-1.6 -3,-2.2 -5.5,-3.7 -11,-7.3 -16.3,-11.2 3.4,-1.9 6.8,-3.8 10.3,-5.7 -9.4,-6.5 -19,-13 -28.5,-19.4 -0.3,0.1 -1,0.4 -1.4,0.5 6.8,25.7 13.6,51.4 20.6,77 -7.4,0.2 -14.7,0 -22.1,0 -0.5,-3.9 -0.4,-7.9 -0.4,-11.8 -0.1,-13.5 -0.6,-27 -0.7,-40.5 -8.1,-0.3 -16.2,0.1 -24.3,-0.1 -1.2,-4.9 -2.3,-9.8 -3.3,-14.7 -5,1 -10,2.2 -15,3.4 3.1,3.7 6.4,7.3 9.4,11 -1.4,0 -2.8,0.1 -4.1,0.1 -3.2,-3.8 -6.5,-7.6 -9.7,-11.3 -4.7,0.5 -9.5,0.9 -14.2,1.2 -6,10.1 -12.3,20 -18.1,30.2 3.8,0.2 7.7,0.4 11.5,0.6 -4.2,7.1 -8.5,14 -12.7,21.1 -0.3,0.5 -0.6,1 -0.9,1.6 1.2,1.1 2.7,2.1 3.3,3.7 0.9,1.9 0.3,4 0.1,6 -1.7,0 -3.3,0 -4.9,-0.1 -0.3,-4.6 -0.2,-9.1 -0.1,-13.7 3.1,-5.2 6.3,-10.3 9.4,-15.5 -5.9,-0.3 -11.9,-0.7 -17.8,-0.8 2.7,5.1 4.8,10.5 7.8,15.5 -1.3,0 -2.7,0 -4,0 -3.1,-6.4 -6.2,-12.7 -9.3,-19.2 3.9,0.2 7.7,0.4 11.6,0.5 -5.1,-10.7 -10.3,-21.3 -15.5,-32 -4.4,-0.8 -8.7,-1.6 -13,-2.6 -2.3,2.3 -5.5,4.2 -6.1,7.6 -3.5,13.4 -7.3,26.8 -10.8,40.2 -1.8,6.6 -3.6,13.1 -5.4,19.7 2.5,0 4.9,0.1 7.4,0.2 -2.3,0.1 -4.6,0.3 -6.9,0.3 -14.5,-0.5 -29.1,-0.1 -43.7,-0.2 3.6,-11.5 8.1,-22.8 11.4,-34.4 1.2,-2.5 2.1,-5.1 2.9,-7.8 4.4,-12.9 8.8,-25.7 13.1,-38.6 -3.2,-1.5 -6.4,-3.1 -9.5,-4.8 -1,-0.4 -2.1,-1.3 -3.1,-0.5 -6.9,3.7 -13.6,7.5 -20.5,11.1 0,-1.3 0,-2.5 0,-3.7 5.8,-3.2 11.7,-6.3 17.5,-9.6 -5.8,-4.1 -11.9,-7.9 -17.7,-12 0,-1.5 0,-2.9 0,-4.4 1.7,1.2 3.4,2.4 5.1,3.6 22.8,-37.7 45.5,-75.5 68.3,-113.2 4,-6.8 8.3,-13.5 12.2,-20.4 2.5,-6.4 4.5,-13.1 6.8,-19.6 -0.2,-0.1 -0.6,-0.3 -0.9,-0.4 -16.3,15.8 -32.7,31.5 -49.1,47.3 -14.3,13.7 -28.5,27.6 -42.9,41.2 0,-1.5 -0.1,-3 -0.1,-4.5 30.1,-28.8 60,-57.8 90.1,-86.6 -1,-1.5 -2,-2.9 -2.9,-4.4 -29.1,15.8 -58,31.9 -87.1,47.6 0,-1.2 0,-2.5 0,-3.7 28.5,-15.7 57,-31.3 85.6,-46.9 -0.6,-1.8 -1.1,-3.5 -1.7,-5.3 -27.2,6.1 -54.3,12.5 -81.5,18.7 -3.4,0.9 -6.8,1.3 -10,2.6 -0.7,-1.1 -1.3,-2.2 -1.9,-3.3 30.9,-7.1 61.8,-14.3 92.7,-21.3 -0.2,-1.9 -0.4,-3.8 -0.5,-5.7 -55.8,-3 -111.6,-6.1 -167.4,-9.2 -1,17.6 0.5,35.4 4,52.6 8.4,-1.9 16.8,-3.9 25.2,-5.8 -0.1,1.1 -0.2,2.3 -0.3,3.5 -8.1,1.9 -16.2,3.7 -24.3,5.6 3.4,17 9,33.5 16.5,49.2 2.4,-1.2 4.7,-2.5 7.1,-3.8 0,1.3 0,2.5 0,3.8 -1.9,1 -3.7,2 -5.5,3 0.2,0.6 0.5,1.3 0.7,1.9 -3.2,0.1 -6.5,0.4 -9.7,0.4 v -0.5 c 1.9,0 3.9,0 5.9,0 -2.7,-5.3 -4.9,-10.9 -7.8,-16.1 -4.8,7.8 -9.5,15.7 -14.4,23.5 0,-2.1 0,-4.2 0,-6.3 4.1,-6.9 8.4,-13.7 12.6,-20.6 0.9,-1.1 0.2,-2.5 -0.2,-3.7 -1.4,-3.8 -2.6,-7.6 -3.9,-11.4 -10.6,-3.7 -21.3,-7.4 -32,-11.1 0.7,4.1 1.6,8.1 2.3,12.1 -2.6,-0.8 -5.2,-1.8 -7.8,-2.7 -4.8,-1.6 -9.5,-3.3 -14.3,-4.9 -0.7,3.1 -2.4,6.4 -5.7,7.5 -4.5,1.7 -9.7,-1.8 -10.4,-6.4 -0.9,-3.7 1.1,-7.4 4.1,-9.6 2.7,-0.9 5.6,-0.8 8.2,0.4 0.7,0.8 1.4,1.6 2.1,2.5 0.8,-0.7 1.5,-1.4 2.3,-2.1 5.2,-4.9 10.3,-9.9 15.5,-14.8 0.9,4 1.6,8 2.5,12 8.4,-7.9 16.7,-15.8 24.9,-23.8 -0.4,-4.2 -0.8,-8.3 -1,-12.5 -0.1,-1.3 0,-3 -1.3,-3.7 -9,-6.3 -18,-12.6 -27.1,-18.8 -0.2,4.1 -0.4,8.2 -0.6,12.3 -2.1,-1.4 -4.1,-2.8 -6.1,-4.2 -4.5,-3.1 -8.9,-6.3 -13.4,-9.2 -1.3,2.6 -3.4,5.1 -6.5,5.5 -4.7,0.9 -9.1,-3.2 -9.2,-7.8 -0.4,-3.4 1.6,-6.5 4.2,-8.5 2.7,-0.9 5.6,-0.8 8.2,0.4 1.2,1.4 2.3,2.9 3.3,4.5 2.5,-1.4 5,-2.8 7.5,-4.1 4.5,-2.4 9,-4.9 13.5,-7.2 -0.2,4.1 -0.4,8.2 -0.6,12.4 10,-5.3 19.9,-10.7 29.9,-16.1 0.6,-4.7 1.5,-9.4 2.4,-14 -7.5,-8.9 -15,-17.8 -22.5,-26.6 -1.2,3.9 -2.4,7.8 -3.6,11.7 -0.7,-0.7 -1.3,-1.5 -2,-2.2 -4.1,-4.8 -8.1,-9.6 -12.1,-14.4 -2.2,1.3 -4.6,2.7 -7.2,2.1 -4.8,-0.8 -7.7,-6.2 -6.4,-10.7 0.6,-2.8 2.8,-4.8 5.3,-6 2,-0.3 4.1,-0.1 6.1,0.4 2.2,1.4 3.3,3.9 4.6,6 3,-0.3 5.8,-1.3 8.7,-1.8 4,-0.8 7.9,-1.8 11.9,-2.6 -1.2,3.9 -2.4,7.8 -3.6,11.7 10.9,-2.4 21.8,-4.9 32.7,-7.4 1.9,-4.4 3.8,-8.9 5.9,-13.2 -5.1,-10.7 -10.2,-21.4 -15.4,-32 -1.4,2 -2.4,4.2 -3.2,6.6 -1.3,1 -2.3,2.3 -3.2,3.6 -0.3,-0.7 -0.7,-1.4 -1,-2 -3.3,-6.5 -6.2,-13.2 -9.6,-19.7 -2,1 -4.2,2.1 -6.5,1.7 -4.4,-0.6 -7.4,-5.2 -6.8,-9.4 0.3,-3.1 2.4,-5.8 5.1,-7.1 2.2,-0.6 4.6,-0.4 6.7,0.5 1.4,1.2 2.8,2.5 3.5,4.3 0.5,1.6 0.6,3.3 0.7,5 4.6,0.2 9.2,0.4 13.8,0.7 3.2,0.2 6.4,0.4 9.7,0.6 -1.9,3.6 -4.2,6.9 -6.2,10.5 11.2,0.7 22.4,1.3 33.6,1.9 3,-3.9 6.1,-7.8 9.3,-11.6 -1.3,-6.9 -2.7,-13.9 -4.1,-20.8 -1,-4.7 -1.7,-9.4 -2.9,-14 -3.1,2.3 -5.9,5 -8.7,7.7 -0.3,-1.5 -0.6,-3.1 -0.9,-4.6 -1.3,-6.5 -2.5,-13 -3.9,-19.4 -2.3,0.3 -4.9,0.9 -7,-0.4 -3.8,-1.9 -5.5,-6.8 -4,-10.7 0.6,-2 2.2,-3.5 3.7,-4.8 2.7,-0.9 5.6,-0.8 8.2,0.4 1.3,1.4 2.6,3 3.2,4.9 0.6,2.1 0.1,4.3 -0.1,6.4 4.6,1.5 9.2,3.2 13.8,4.8 2.8,1 5.7,2 8.6,3 -2.7,2.9 -6,5.2 -8.4,8.4 9.2,3.4 18.6,6.4 27.8,9.8 1.3,0.4 2.6,1.1 4.1,1.1 1.8,-1 3.2,-2.4 4.9,-3.5 1.9,-1.4 3.9,-2.8 5.9,-4.2 0.6,-12 1.2,-24 1.8,-35.9 -2.8,1.5 -5.6,3 -8.4,4.5 -0.7,0.3 -1.4,0.7 -2,1 0,-1.5 0.1,-2.9 0.2,-4.4 0.3,-6.7 0.7,-13.4 1,-20.2 -2,-0.3 -4.1,-0.3 -5.8,-1.5 -3,-2 -4.4,-5.9 -3.5,-9.3 0.5,-2.4 2.2,-4.2 4,-5.7 1.5,-0.4 3.1,-0.7 4.7,-0.7 1.2,0.3 2.3,0.7 3.5,1.1 1.7,1.8 3.3,3.9 3.5,6.4 0.3,2.4 -0.7,4.6 -1.6,6.7 4.7,3.3 9.5,6.6 14.3,9.9 1.8,1.3 3.6,2.5 5.4,3.8 -2.1,1.1 -4.2,2.3 -6.3,3.5 -1.4,0.7 -2.7,1.5 -4.1,2.2 0.5,0.3 0.9,0.7 1.4,1 5.8,4.1 11.7,8.1 17.5,12.1 3.2,2 6,4.5 9.4,6.2 2,-0.5 3.9,-1.5 5.9,-2.2 2.1,-0.9 4.4,-1.4 6.5,-2.5 0.9,-1.4 1.1,-3 1.6,-4.5 3,-9.9 6,-19.8 9,-29.7 -3.8,0.8 -7.6,1.7 -11.4,2.5 0.5,-1.6 0.9,-3.1 1.4,-4.7 1.8,-6.3 3.9,-12.4 5.6,-18.7 -2.9,-1 -5.9,-2.8 -6.8,-5.9 -1.4,-4 0.5,-8.5 3.9,-10.8 2.7,-0.9 5.6,-0.7 8.2,0.5 1.9,2.1 3.7,4.6 3.5,7.6 0.1,2.8 -1.6,5 -3.2,7.1 5,5.9 10,11.8 15,17.7 0.2,0.2 0.5,0.7 0.7,0.9 -3.8,0.8 -7.6,1.7 -11.4,2.6 7.5,8.9 15.1,17.8 22.6,26.7 4.3,-0.5 8.7,-0.9 13,-1.1 1.2,0.1 1.8,-0.9 2.4,-1.8 5.8,-9.5 11.7,-19 17.5,-28.5 -3.9,-0.3 -7.8,-0.4 -11.6,-0.7 0.6,-1.1 1.3,-2.2 2,-3.3 3.5,-5.8 7.2,-11.5 10.6,-17.4 -2.2,-1.5 -4.4,-3.3 -4.9,-6 -1.3,-4.7 0.8,-8.8 4.2,-10.9 m -6.2,33.8 c 5.9,0.4 11.7,0.7 17.6,1.1 -2.5,-5.6 -5.1,-11.2 -8,-16.7 -3.3,5.1 -6.5,10.3 -9.6,15.6 m -56.2,-10.1 c -1.9,5.9 -3.7,11.9 -5.5,17.8 5.8,-1 11.5,-2.5 17.3,-3.8 -3.8,-4.8 -7.8,-9.4 -11.8,-14 m 116.4,19.5 c 5.6,1.9 11.2,4 16.8,5.7 -1.3,-6.1 -2.3,-12.2 -3.7,-18.2 -4.6,4 -8.9,8.3 -13.1,12.5 m -52.5,-2.3 c -5.3,8.7 -10.6,17.4 -16,26 3.7,0.3 7.4,0.4 11.1,0.7 6.6,0.1 13.1,0.9 19.6,1.1 -4.5,-9.4 -8.9,-18.8 -13.4,-28.1 -0.2,-1.1 -1.2,-0.2 -1.3,0.3 m -69.1,34.9 c 10,-2.2 20,-4.7 30,-6.8 -6.7,-8.2 -13.7,-16.2 -20.5,-24.3 -3.3,10.4 -6.3,20.8 -9.5,31.1 m -56.9,-10.2 c 5.3,-2.7 10.5,-5.6 15.8,-8.4 -4.9,-3.5 -9.8,-6.9 -14.8,-10.2 -0.5,6.2 -0.7,12.4 -1,18.6 m 162.5,7.3 c 4.2,1.6 8.5,2.8 12.8,4.3 5.5,1.8 10.9,4 16.5,5.9 -2.1,-10.6 -4.2,-21.3 -6.4,-31.9 -7.8,7.1 -15.3,14.5 -22.9,21.7 m 72.4,-5.2 c -0.8,0.3 -0.3,1.1 0.3,1.3 4.6,3 9.1,6.2 13.8,9.3 0.5,-6.2 0.6,-12.5 0.7,-18.7 -5,2.5 -9.9,5.3 -14.8,8.1 m -226.4,31.1 c 4.7,-2.5 9.3,-5.1 13.9,-7.6 4.3,-2.4 8.9,-4.5 13.2,-7.1 -0.3,-0.7 -1,-1 -1.5,-1.4 -8,-5.4 -15.9,-11 -23.9,-16.4 -0.6,10.7 -1.2,21.6 -1.7,32.5 m 65.7,-23.3 c 2.8,14.4 5.9,28.8 8.8,43.2 9,43.7 17.9,87.4 26.8,131.1 1.7,-0.2 3.4,-0.3 5.2,-0.3 2.1,-43.4 4.2,-86.9 6.3,-130.3 0.8,-16 1.6,-32.1 2.3,-48.1 -16.6,-0.7 -33.3,0.5 -49.4,4.4 m 52.7,-4.1 c -0.8,15.9 -1.5,31.9 -2.3,47.8 -2.1,43.5 -4.2,86.9 -6.2,130.4 1.6,0.3 3.2,0.7 4.9,1 13.2,-43.7 26.4,-87.4 39.6,-131 3.9,-13 7.8,-25.9 11.8,-38.9 -15.5,-5.5 -31.6,-8.6 -47.8,-9.3 m -101.8,22.3 c 4.1,8.3 8,16.7 12.1,25 21.5,44.6 43,89.2 64.7,133.7 1.5,-0.6 3.1,-1.3 4.7,-1.8 -8.9,-43.9 -17.9,-87.8 -26.9,-131.7 -2.9,-14.3 -5.8,-28.5 -8.7,-42.8 -16,3.8 -31.6,9.6 -45.9,17.6 m 186.6,-1 c 3,2.2 6.2,4.2 9.3,6.3 5.6,3.7 11,7.6 16.7,11.2 0.4,-10.9 0.9,-21.8 1.3,-32.6 -9.2,5 -18.2,10.1 -27.3,15.1 m -34,-10.9 c -3.6,12.2 -7.4,24.3 -11,36.5 -13.5,44.4 -26.9,88.9 -40.3,133.3 1.5,0.7 3,1.5 4.5,2.3 10.3,-17 20.5,-34.1 30.8,-51.1 11.2,-18.4 22.1,-36.9 33.4,-55.2 v -0.3 c 9,-14.4 17.6,-29.1 26.4,-43.6 -13.6,-9.3 -28.3,-16.8 -43.8,-21.9 m -230,4.1 c 1.1,6.1 2.4,12.2 3.6,18.3 3.5,-3.2 6.9,-6.5 10.4,-9.7 V 540 c 1,-0.9 2,-1.8 3,-2.8 -0.4,-0.1 -1.3,-0.4 -1.8,-0.6 -5.1,-1.6 -10.1,-3.5 -15.2,-5.1 m 51.7,24.1 c -5.9,4.5 -11.6,9.3 -17,14.5 37.4,44.2 75,88.3 112.4,132.5 1.4,-1 2.7,-2 4,-3 -12.3,-25.5 -24.6,-51 -36.9,-76.5 -9.5,-19.8 -19.2,-39.5 -28.6,-59.4 h -0.1 c -3.6,-7.6 -7.4,-15.2 -11,-22.9 -8,4.3 -15.6,9.4 -22.8,14.8 m -38.2,-8.1 c 2.1,10.7 4.2,21.3 6.3,32 4.1,-3.7 8,-7.6 12,-11.5 3.6,-3.4 7.3,-6.7 10.8,-10.3 -9.7,-3.5 -19.4,-6.8 -29.1,-10.2 m 324.2,6.3 c -0.8,0.2 -1.7,0.4 -2.5,0.6 0.8,1 1.6,2 2.5,2.9 3.2,3.7 6.3,7.4 9.5,11 1.8,-6 3.6,-12 5.3,-18 -4.9,1.1 -9.8,2.3 -14.8,3.5 m -90.5,46.1 c -9.2,14.9 -18.1,29.9 -27.2,44.9 -11.3,18.9 -22.8,37.7 -34.1,56.6 1.3,1.1 2.6,2.3 3.9,3.5 19.2,-18.3 38.3,-36.8 57.4,-55.2 22.4,-21.5 44.7,-43.1 67.1,-64.6 -11,-13 -23.8,-24.5 -37.8,-34.2 -9.7,16.5 -19.7,32.7 -29.3,49 m 60.4,-28 c 6.9,8 13.8,16.1 20.7,24.1 3.1,-10.4 6.2,-20.7 9.3,-31.1 -10,2.3 -20,4.7 -30,7 m -307.5,40.8 c 47.1,32.1 94.1,64.3 141.1,96.5 1.2,-1.4 2.3,-2.8 3.5,-4.3 -37.6,-44.1 -75,-88.3 -112.5,-132.5 -12.3,12 -23.1,25.6 -32.1,40.3 m -42.9,-27.8 c 1.7,4.3 3.9,8.4 5.9,12.6 0.7,1.4 1.2,2.9 2.3,4 1.5,-2.5 3.1,-4.9 4.5,-7.5 1.8,-2.7 3.4,-5.4 5,-8.2 -1.5,-0.1 -3,-0.2 -4.4,-0.2 -4.5,-0.1 -8.9,-0.5 -13.3,-0.7 m 289.9,69.6 c -18.3,17.6 -36.7,35.1 -54.8,52.9 0.5,1.7 2,3 2.8,4.6 17.3,-9.4 34.6,-19 51.9,-28.3 v -0.1 c 32.5,-17.6 64.8,-35.5 97.2,-53.2 -7.3,-15.3 -16.7,-29.6 -27.7,-42.6 -23.1,22.2 -46.2,44.4 -69.4,66.7 m -273,-57.8 c 4.6,9.7 9.2,19.4 14,29.1 5.5,-9.1 11.2,-18.2 16.6,-27.4 -10.2,-0.6 -20.4,-1.2 -30.6,-1.7 m 397.7,9.5 c 1.4,2.9 2.8,5.8 4.3,8.6 1.2,2.7 2.6,5.4 4,8 3.2,-5.2 6.4,-10.4 9.3,-15.7 -4.5,-0.4 -9,-0.6 -13.4,-0.6 v -0.2 c -1.5,0 -2.9,0 -4.2,-0.1 m -373.4,9.4 c -8.9,14.7 -15.9,30.6 -20.9,47 53.3,18.2 106.5,36.5 159.8,54.6 0.7,-1.7 1.5,-3.4 2.3,-5.1 -47.1,-32.2 -94.1,-64.5 -141.2,-96.5 m 342.4,0 c 2.6,5.4 5.4,10.7 8,16.1 2.1,4.3 4,8.7 6.2,12.9 5.5,-9.2 11,-18.4 16.5,-27.5 -10.2,-0.6 -20.4,-1 -30.7,-1.5 m -94,71.9 v 0.1 c -16.9,8.9 -33.5,18.3 -50.3,27.4 0.7,1.7 0.9,3.8 2.1,5.2 16.4,-3.6 32.8,-7.5 49.2,-11.3 20.9,-4.8 41.9,-9.7 62.8,-14.5 4.5,-1.2 9.1,-1.8 13.5,-3.3 1,-0.1 2.1,-0.3 3.1,-0.5 11.7,-2.7 23.3,-5.4 35,-8.1 -1.6,-9.2 -4.2,-18.2 -7.3,-27 -2.6,-7.6 -5.7,-15.1 -9.2,-22.3 -33,18.1 -65.9,36.2 -98.9,54.3 m -304.6,-42.9 v 0.2 c -4.1,0.5 -8,1.6 -12,2.6 0.1,0.8 0.2,1.7 0.8,2.4 3.3,3.9 6.7,7.7 9.9,11.7 1,-1.7 1.4,-3.6 2,-5.4 1.3,-4.1 2.6,-8.2 3.8,-12.4 -1.6,0.3 -3.1,0.6 -4.5,0.9 m 6.4,9.6 c 6.6,8.1 13.4,16.1 20.2,24 0.8,-0.5 0.8,-1.7 1.1,-2.4 2.7,-9.5 5.7,-18.9 8.6,-28.3 -10,2.2 -19.9,4.5 -29.9,6.7 m 27.9,11.6 c -4.9,16.5 -7.9,33.6 -8.7,50.8 55.8,3.1 111.7,6.1 167.5,9.2 0.3,-1.8 0.6,-3.5 1,-5.3 -53.2,-18.3 -106.5,-36.5 -159.8,-54.7 m 418.3,1 c 0.9,4.6 1.9,9.1 2.8,13.7 0.3,1.6 0.5,3.4 1.4,4.8 v -0.7 c 4.6,-3.6 8.4,-8.1 12.7,-12 -4.2,-1.4 -8.4,-3.2 -12.8,-4 v -0.3 c -1.3,-0.6 -2.7,-1 -4.1,-1.5 m -32.1,0.5 c 0.6,2.3 0.9,4.7 1.8,6.9 0.1,2.6 0.8,5 1.3,7.6 1.2,5.8 2.3,11.6 3.5,17.3 1.3,-1.2 2.6,-2.3 3.9,-3.5 l -0.1,-0.1 c 6.3,-6 12.6,-12.2 18.9,-18.3 -9.8,-3.3 -19.6,-6.6 -29.3,-9.9 m -44,28.7 c -24.1,5.4 -48.1,11 -72.1,16.5 -15.9,3.7 -31.8,7.3 -47.6,11 0.2,1.8 0.4,3.7 0.3,5.6 15.7,1 31.5,1.8 47.2,2.7 17.9,1 35.7,2 53.6,2.9 22.3,1.2 44.6,2.5 66.9,3.7 0.7,-17.6 -0.5,-35.4 -4.1,-52.7 -14.7,3.5 -29.5,6.7 -44.2,10.3 m -380.1,20 c -0.9,0.2 -0.1,1 0.4,1.3 7.4,5.2 14.9,10.3 22.3,15.5 0.7,0.4 1.4,1.2 2.3,1 0.3,-2.6 0.3,-5.1 0.4,-7.7 0.2,-8.1 0.9,-16.3 1.3,-24.4 -9,4.7 -17.9,9.6 -26.7,14.3 m -12.4,-5.4 c -2.9,1.4 -5.7,3 -8.5,4.5 3.6,3.1 7.8,5.6 11.7,8.3 1,0.7 2,1.5 3,2.2 0.3,-6.3 0.8,-12.6 0.9,-18.9 -2.4,1.3 -4.8,2.6 -7.1,3.9 m 444.9,13.4 c -0.5,10.9 -0.9,21.7 -1.5,32.6 8.2,-4.4 16.4,-8.9 24.6,-13.4 0.9,-0.5 1.8,-1 2.8,-1.5 -1.2,-0.9 -2.4,-1.7 -3.6,-2.5 V 739 c -7.6,-4.9 -14.9,-10.1 -22.3,-15 m -171.8,8.6 c -0.3,1.9 -0.7,3.7 -1,5.6 16.1,5.4 32.2,11 48.3,16.5 17.8,6.1 35.6,12.2 53.4,18.3 19.4,6.6 38.7,13.3 58,19.8 5,-16.5 8.1,-33.7 8.7,-51 -22.4,-1.3 -44.9,-2.4 -67.3,-3.7 -17.6,-0.9 -35.3,-1.9 -52.9,-2.9 -15.7,-0.9 -31.4,-1.8 -47.2,-2.6 m 202.1,18.7 c 1,-0.6 2.1,-1.1 3.2,-1.7 4.2,-2.4 8.5,-4.5 12.5,-7 -2.7,-2.1 -5.8,-3.7 -8.3,-6 l -0.2,0.2 c -2,-1.6 -4.2,-3 -6.3,-4.5 -0.4,6.4 -0.6,12.7 -0.9,19 m -204.1,-10 c -0.7,1.6 -1.4,3.1 -2.1,4.7 9.1,6.4 18.3,12.5 27.4,18.8 8.1,5.5 16.1,11.2 24.3,16.5 9.3,6.7 19,13 28.5,19.6 3.5,2.3 6.8,4.9 10.5,7 6.8,5.1 14.1,9.7 21.1,14.6 9.8,6.7 19.6,13.4 29.3,20.1 8.9,-14.5 15.9,-30.3 20.8,-46.6 -19,-6.5 -37.9,-13.1 -57,-19.4 v -0.1 c -17.8,-6.1 -35.6,-12.2 -53.4,-18.3 -16.5,-5.7 -32.9,-11.3 -49.4,-16.9 m -4.4,7.5 c -0.2,2.8 1,5.5 1.6,8.2 0.4,2.2 1.9,3.8 3.3,5.4 16.1,18.9 32,37.8 48.1,56.6 6.2,7.5 12.6,14.8 18.9,22.3 12.5,14.8 25.1,29.5 37.6,44.3 5,-4.6 9.6,-9.6 14,-14.8 6.7,-8 12.8,-16.4 18.1,-25.4 -18.4,-12.7 -37,-25.2 -55.3,-37.9 h -0.2 c -10.6,-7.4 -21.3,-14.7 -32.1,-21.9 v -0.2 c -14.1,-9.5 -28.1,-19.2 -42.2,-28.8 -3.9,-2.5 -7.6,-5.5 -11.8,-7.8 m -250.2,32 c 9.7,3.4 19.5,6.7 29.2,10.1 -2.2,-10.6 -4.4,-21.3 -6.4,-32 -7.6,7.3 -15.2,14.6 -22.8,21.9 m 225.7,-17.6 c -1.6,4.5 -1.4,9.4 -1.7,14.1 -2.6,54.8 -5.3,109.5 -7.8,164.3 16.5,0.7 33.2,-0.5 49.3,-4.4 -6.7,-32.3 -12.9,-64.6 -20.3,-96.7 -5.8,-25.8 -11.7,-51.5 -17.4,-77.3 -0.8,0 -1.5,0 -2.1,0 m 28.8,3.5 c 3.7,14.1 7.5,28.1 11.2,42.2 1.2,5 4,9.4 6.1,14.1 15.2,31.5 30.4,62.9 45.6,94.4 14.6,-7.8 28,-17.9 40,-29.4 -11.8,-14.1 -23.8,-28.1 -35.7,-42.1 -6,-7.2 -12.1,-14.3 -18.2,-21.5 -16.3,-19.2 -32.7,-38.4 -49,-57.7 m -269.4,13.8 c -1.7,1.6 -3.3,3.2 -4.8,4.8 4.2,1.7 8.5,3 12.8,4.5 1.3,0.5 2.6,0.9 3.9,1.4 -1,-6.2 -2.4,-12.4 -3.6,-18.5 -2.9,2.6 -5.5,5.2 -8.3,7.8 m 437.6,-0.5 c -1.2,3.3 -2,6.7 -3,10.1 -2,7 -4.3,13.9 -6.4,20.9 10,-2.3 20,-4.5 29.9,-7.1 -6.7,-8 -13.5,-16 -20.5,-23.9 m -202.3,2.4 c -13.8,51.3 -27.8,102.5 -41.7,153.8 11.2,2.7 22.6,4.7 34.1,5.1 2.6,-52.9 5.1,-105.9 7.6,-158.9 m -31.4,8.9 c -23.6,39.2 -47.3,78.4 -70.9,117.7 8.4,5.8 17.3,10.9 26.6,15.1 11.7,-34.4 23.4,-68.8 35.1,-103.2 3.5,-10.5 7.3,-20.9 10.6,-31.5 -0.6,0.6 -1,1.2 -1.4,1.9 m 261.7,5.5 c -1.8,5.9 -3.6,11.8 -5.3,17.8 1.4,-0.3 2.8,-0.6 4.2,-1 4.4,-1 8.8,-1.9 13.2,-3.1 -1.6,-1.9 -3.2,-3.8 -4.8,-5.7 -2.6,-2.6 -4.6,-5.6 -7.3,-8 m -173,57.1 c 6.5,24.5 13,48.9 19.6,73.4 5.9,-2.3 11.7,-5.2 17.3,-8.3 -14.4,-29.6 -28.6,-59.3 -43,-88.9 1.7,8 4.1,15.9 6.1,23.8 m 119.4,-10.4 c -3.2,5.5 -6.8,10.7 -9.8,16.3 10.2,0.4 20.4,1 30.6,1.4 -4.5,-9.7 -9.4,-19.2 -14,-28.8 -2.6,3.4 -4.5,7.4 -6.8,11.1 m 20.2,28.4 c 1,0.1 2.1,0.2 3.2,0.2 4.8,0.4 9.5,0.4 14.3,0.6 -0.3,-0.9 -0.6,-1.9 -0.9,-2.8 h -0.3 c -2.1,-4.7 -4.5,-9.2 -6.7,-13.8 -3.4,5.1 -6.3,10.6 -9.6,15.8 m -54.4,15.7 c -4.4,4.4 -9.1,8.4 -13.5,12.9 9.8,3.2 19.5,6.7 29.2,9.8 -2.2,-10.6 -4.3,-21.2 -6.5,-31.8 -3.2,2.9 -6.1,6.1 -9.2,9.1 m 12.5,33 c 5.6,1.7 11.1,4.1 16.8,5.4 -1.2,-6 -2.5,-12 -3.7,-18 -4.4,4 -8.8,8.3 -13.1,12.6 m -57.9,0.8 c -4.5,2.5 -9.2,4.8 -13.7,7.4 8.6,5.9 17.2,11.8 25.9,17.5 0.4,-10.9 1,-21.7 1.4,-32.6 -4.6,2.6 -9.1,5.3 -13.6,7.7 M 2168,944.1 c 4.6,9.7 9.4,19.3 14,29 5.7,-9 11.1,-18.3 16.7,-27.4 -10.3,-0.5 -20.5,-0.9 -30.7,-1.6 m 125.1,11.4 c 5,3.3 9.9,6.8 14.9,10 0.3,-6.3 0.5,-12.5 0.8,-18.8 -5.3,2.9 -10.6,5.7 -15.7,8.8 z"
   id="path28" />
	<path
   class="st2"
   d="m 2211,446.1 c 3.7,0.3 7.5,0 11.2,0.7 2.5,1.7 4.3,4.1 6.5,6.1 -0.9,8.7 -1.5,17.5 -2.6,26.2 -2.7,0.4 -5.3,0.8 -7.9,1.2 -2.9,-6.2 -6,-12.3 -8.8,-18.6 2.3,-1.5 4.6,-3.6 4.9,-6.5 0.9,-3.4 -0.9,-6.8 -3.3,-9.1 z"
   id="path30" />
	<path
   class="st2"
   d="m 2119.6,453.9 c 1.4,-1 2.7,-2.7 4.7,-2.7 3.4,0 6.8,0.5 10.3,0.4 -3.4,2.3 -5.3,6.8 -3.9,10.8 0.9,3.1 3.9,4.9 6.8,5.9 -1.7,6.3 -3.8,12.5 -5.6,18.7 -5.1,-1.5 -10.2,-2.7 -15.4,-4 -0.2,-8.2 -0.2,-16.3 -0.3,-24.5 -0.4,-2.2 2,-3.3 3.4,-4.6 z"
   id="path32" />
	<path
   class="st2"
   d="m 2142.7,452.1 c 3.7,0.4 7.5,0 11.1,0.7 2.1,1.5 3.9,3.5 5.8,5.4 0.8,0.7 0.6,1.8 0.6,2.8 -0.8,7.9 -1.5,15.7 -2.2,23.6 -5,-5.9 -10,-11.8 -15,-17.7 1.6,-2.1 3.3,-4.3 3.2,-7.1 0.2,-3 -1.6,-5.6 -3.5,-7.7 z"
   id="path34" />
	<path
   class="st1"
   d="m 2464.3,454.4 c 3.1,-0.9 6.3,-1.8 9.5,-1.5 -2.1,2.1 -5.2,2.2 -7.7,3.4 -2.7,1.1 -4.9,3.2 -6.3,5.7 1.3,0.2 2.6,0.4 3.9,0.6 -0.5,1.7 -1.6,3 -3,4 -0.2,-0.3 -0.7,-0.8 -1,-1.1 -1.1,0.1 -2.1,0.2 -3.1,0.3 -0.1,-1.1 -0.1,-2.1 -0.1,-3.1 -4.2,-1.2 -8.4,-0.1 -12.5,0.4 1.1,-2 3.6,-2.7 5.8,-2.7 2.6,-0.1 5.4,0.6 7.9,-0.7 2.5,-1.3 3.7,-4.6 6.6,-5.3 z"
   id="path36" />
	<path
   class="st1"
   d="m 2489.6,455.6 c 2,-1 4.1,-2.2 6.3,-2.7 2.9,-0.8 5.5,1.8 8.5,1.2 1.9,-0.1 4.3,-1.4 5.7,0.5 2.7,-0.2 5.1,-1.6 7.8,-1.9 2.1,0.1 4,1.3 6,2.2 3,1.6 6.2,3.1 8.3,5.9 -3.7,-1.1 -7.1,-3.1 -10.9,-3.7 -3.1,-0.5 -6.1,0.3 -9.1,1 -1.3,0.4 -2.9,0.6 -3.7,1.9 -0.4,1.4 -0.5,2.8 -0.8,4.2 -1.3,-0.1 -2.6,-0.1 -3.8,-0.2 0,-1.7 0.1,-3.3 0.2,-5 -3.8,-1.9 -8.1,-2.4 -12.1,-1.4 -3.7,0.8 -7,2.5 -10.6,3.5 2.3,-2.4 5.3,-3.9 8.2,-5.5 z"
   id="path38" />
	<path
   class="st2"
   d="m 2253.9,460.9 c 1.6,-1.1 2.9,-3 5,-2.8 3.4,0 6.8,0.5 10.2,0.5 -2.6,1.8 -4.7,4.7 -4.5,7.9 -0.2,2.8 1.6,5.2 3.3,7.2 -5.7,5.4 -11.3,10.9 -17.1,16.3 0,-8.2 -0.1,-16.4 -0.2,-24.6 -0.4,-2.3 1.9,-3.2 3.3,-4.5 z"
   id="path40" />
	<path
   class="st2"
   d="m 2277.3,459 c 3.6,0.4 7.3,0 10.8,0.7 2.2,1.3 3.8,3.4 5.7,5.1 1.1,0.8 0.8,2.2 0.8,3.3 -0.6,5.9 -1.1,11.8 -1.7,17.6 -0.2,2 -0.2,4.1 -0.8,6 -4.8,1.1 -9.8,1.5 -14.6,2.5 0,0.2 -0.1,0.6 -0.2,0.8 -1.3,-6.7 -2.7,-13.3 -3.9,-20 1.7,-0.7 3.6,-1.3 4.9,-2.7 2,-2.2 2.8,-5.4 2,-8.2 -0.4,-1.9 -1.8,-3.5 -3,-5.1 z"
   id="path42" />
	<path
   class="st2"
   d="m 2196.9,479.4 c 3.1,-5.3 6.3,-10.5 9.6,-15.6 2.8,5.5 5.4,11.1 8,16.7 -5.9,-0.3 -11.7,-0.6 -17.6,-1.1 z"
   id="path44" />
	<path
   class="st2"
   d="m 2140.7,469.3 c 4,4.6 8,9.2 11.8,14 -5.7,1.3 -11.5,2.8 -17.3,3.8 1.9,-5.9 3.6,-11.9 5.5,-17.8 z"
   id="path46" />
	<path
   class="st2"
   d="m 2053.1,480.9 c 2,-2 4.1,-3.8 6.5,-5.2 3.7,-0.4 7.5,0.4 11.3,0.4 -1.8,1.5 -3.5,3.3 -4,5.7 -0.9,3.4 0.5,7.4 3.5,9.3 1.7,1.2 3.8,1.2 5.8,1.5 -0.3,6.7 -0.7,13.4 -1,20.2 -7.5,-1.4 -14.8,-3.6 -22.2,-5.4 -0.2,-7 -0.1,-14.1 -0.2,-21.1 0,-1.9 -0.5,-3.8 0.3,-5.4 z"
   id="path48" />
	<path
   class="st2"
   d="m 2079.2,476.4 c 3,0.2 6.1,0.2 9.2,0.4 1.1,0 2.4,0.2 3.2,1.1 1.8,1.8 3.8,3.4 5.2,5.5 -0.2,5.4 -1,10.7 -1.4,16 -4.8,-3.3 -9.6,-6.6 -14.3,-9.9 0.9,-2.1 2,-4.3 1.6,-6.7 -0.2,-2.6 -1.8,-4.7 -3.5,-6.4 z"
   id="path50" />
	<path
   class="st2"
   d="m 2257.1,488.8 c 4.2,-4.3 8.5,-8.6 13.1,-12.5 1.4,6 2.4,12.1 3.7,18.2 -5.7,-1.7 -11.2,-3.8 -16.8,-5.7 z"
   id="path52" />
	<path
   class="st1"
   d="m 2462.8,485.3 c 3.4,-0.8 6.8,-1.8 10.3,-2.5 -0.8,1.1 -1.7,2 -2.8,2.8 0.1,2.4 0.3,4.8 0.6,7.2 2.2,0.3 4.4,0.4 6.5,1.3 -0.5,2.1 -2.9,0.7 -3.7,2.3 -2.3,-0.5 -4.8,-0.9 -6.9,0.1 -1.7,0.9 -1.1,3 -1.1,4.5 0.2,2.5 -0.5,4.9 -1.5,7.2 -1.3,-1.2 -2.5,-2.5 -3.3,-4 -1.3,-2.7 -1.4,-5.8 -2,-8.7 -0.3,-0.2 -0.9,-0.6 -1.1,-0.8 2,-1.3 4.4,-2.2 6.2,-3.8 -0.1,-2.1 -0.9,-3.9 -1.2,-5.6 z"
   id="path54" />
	<path
   class="st2"
   d="m 2311.5,493.8 c 2.4,-1.8 4.4,-4 7,-5.4 3.7,-0.3 7.3,0.4 11,0.4 -1.6,1.7 -3.4,3.5 -3.8,5.9 -0.7,2.5 0.3,5.1 1.2,7.4 -5,2.9 -10.2,5.7 -15.3,8.5 0,-5.7 -0.1,-11.3 -0.1,-16.8 z"
   id="path56" />
	<path
   class="st2"
   d="m 2337.7,489 c 3.9,0.4 7.8,0.4 11.7,0.6 2.1,2.1 4.2,4.1 6.4,6.2 -0.8,8.7 -1.7,17.4 -2.4,26.1 -4.5,0.8 -9,1.4 -13.4,2.2 -2.9,0.5 -5.9,1.2 -8.9,1 0.2,-6.7 0.5,-13.4 0.8,-20.1 1.8,-0.1 3.8,0 5.4,-0.9 2.9,-1.6 4.7,-5.1 4.4,-8.5 -0.3,-2.6 -2.1,-4.8 -4,-6.6 z"
   id="path58" />
	<path
   class="st2"
   d="m 2078.6,511.2 c 0.2,-6.2 0.4,-12.4 1,-18.6 5,3.3 9.9,6.7 14.8,10.2 -5.3,2.8 -10.4,5.8 -15.8,8.4 z"
   id="path60" />
	<path
   class="st1"
   d="m 2547.4,500.9 c 1.5,-2.9 4.4,-4.8 7.5,-5.6 0.3,2.6 -0.4,5 -1.4,7.3 -1,2.2 0,4.6 -0.4,6.9 -0.6,1.3 -1.7,2.3 -2.6,3.4 1.7,-0.6 3.3,-1.2 5.1,-1.7 0.2,1.4 0.6,2.9 0.2,4.4 -0.8,3.4 -4.8,5.7 -8.1,4.6 -2.4,-0.8 -5.3,-0.9 -7.3,0.9 -3.3,2.9 -6.1,6.7 -10.2,8.5 0.5,-4.6 2,-9.5 5.2,-12.9 2.1,-1.5 4.9,-1.1 7.2,-2.3 -0.3,-0.3 -1,-0.9 -1.3,-1.2 1.1,-1.6 3.1,-1.8 4.8,-2.2 0.8,-3.4 0.2,-6.9 1.3,-10.1 z"
   id="path62" />
	<path
   class="st2"
   d="m 2313.5,513.3 c 4.9,-2.7 9.8,-5.6 14.8,-8.1 -0.1,6.2 -0.3,12.5 -0.7,18.7 -4.6,-3 -9.1,-6.2 -13.8,-9.3 -0.6,-0.2 -1.1,-1 -0.3,-1.3 z"
   id="path64" />
	<path
   class="st2"
   d="m 2090.4,508.8 c 1.4,-0.7 2.7,-1.5 4.1,-2.2 0,0.9 0,1.7 0,2.6 -0.9,0.2 -1.8,0.4 -2.6,0.6 -0.5,-0.3 -1,-0.7 -1.5,-1 z"
   id="path66" />
	<path
   class="st2"
   d="m 1997.5,521.6 c 2.3,-1.8 4.3,-4 6.9,-5.4 3.8,-0.4 7.5,0.4 11.3,0.4 -1.6,1.3 -3.1,2.8 -3.7,4.8 -1.5,3.9 0.2,8.8 4,10.7 2.1,1.3 4.7,0.7 7,0.4 1.4,6.5 2.6,13 3.9,19.4 -3.5,0.4 -7.1,1.7 -10.7,0.7 -6.1,-1.6 -12.3,-3.2 -18.5,-4.7 -0.1,-8.7 -0.2,-17.5 -0.2,-26.3 z"
   id="path68" />
	<path
   class="st2"
   d="m 2023.9,517 c 3.3,0.3 6.7,0.1 10,0.5 1.1,0 2.1,0.8 2.9,1.5 1.6,1.6 3.5,3 4.6,5 0.1,3 -0.5,6 -0.7,9 -4.6,-1.6 -9.2,-3.2 -13.8,-4.8 0.3,-2.1 0.7,-4.3 0.1,-6.4 -0.4,-1.9 -1.8,-3.4 -3.1,-4.8 z"
   id="path70" />
	<path
   class="st2"
   d="m 2311.9,517.3 c 1.4,0.9 2.7,1.9 4.1,3 -0.3,0.2 -0.8,0.5 -1.1,0.6 -1.1,-0.3 -2.1,-0.6 -3.2,-0.9 0,-0.9 0.1,-1.8 0.2,-2.7 z"
   id="path72" />
	<path
   class="st2"
   d="m 2026.3,531.5 c 5.1,1.5 10.1,3.4 15.2,5.2 -0.2,0 -0.7,0 -1,0 -0.1,1.1 -0.2,2.2 -0.2,3.3 v 0.1 c -3.5,3.2 -6.9,6.5 -10.4,9.7 -1.3,-6 -2.5,-12.1 -3.6,-18.3 z"
   id="path74" />
	<path
   class="st2"
   d="m 2370.7,535.5 c 3.8,-0.4 7.7,0.5 11.6,0.3 -1.6,1.3 -3.2,2.7 -3.9,4.7 -0.9,2.1 -0.4,4.4 -0.3,6.6 -4.7,1.2 -9.5,2.2 -14.2,3.3 -0.1,-3.2 -0.1,-6.3 -0.1,-9.4 2.4,-1.9 4.4,-4 6.9,-5.5 z"
   id="path76" />
	<path
   class="st2"
   d="m 2390.5,536.3 c 3.7,0.3 7.6,-0.1 11.3,0.7 2.4,1.7 4.2,4 6.3,6 -0.9,8.7 -1.6,17.4 -2.5,26.1 -6.1,1 -12.3,1.9 -18.4,3 -3.7,0.7 -7.1,-1.2 -10.7,-1.7 -0.1,0.2 -0.3,0.6 -0.4,0.8 2,-6.5 3.9,-13 5.8,-19.6 2.2,0.3 4.5,0.9 6.6,0.1 3.4,-1.3 5.6,-5 5.3,-8.7 0,-2.6 -1.6,-4.9 -3.3,-6.7 z"
   id="path78" />
	<path
   class="st4"
   d="m 2040.4,536.7 c 0.3,0 0.8,0 1,0 0.4,0.1 1.3,0.4 1.8,0.6 -1,0.9 -2,1.9 -3,2.8 0,-1.2 0.1,-2.3 0.2,-3.4 z"
   id="path80" />
	<path
   class="st2"
   d="m 2364,553.8 c 4.9,-1.2 9.9,-2.4 14.9,-3.4 -1.7,6 -3.6,12 -5.3,18 -3.3,-3.6 -6.4,-7.4 -9.5,-11 -0.1,-1.3 -0.1,-2.4 -0.1,-3.6 z"
   id="path82" />
	<path
   class="st2"
   d="m 1956.1,574.7 c 1.7,-1.2 3.1,-3.2 5.4,-3 3.6,0 7.2,0.7 10.8,0.2 -2.7,1.4 -4.9,4 -5.1,7.1 -0.6,4.3 2.4,8.8 6.8,9.4 2.3,0.5 4.4,-0.7 6.5,-1.7 3.4,6.5 6.3,13.1 9.6,19.7 -4.5,0.3 -8.9,1.3 -13.3,2 -1.7,0.3 -3.4,0.2 -5,-0.2 -6.1,-1.6 -12.3,-3.1 -18.4,-4.7 -0.1,-8.3 -0.2,-16.7 -0.2,-25 -0.2,-1.8 1.7,-2.7 2.9,-3.8 z"
   id="path84" />
	<path
   class="st2"
   d="m 1979,572.4 c 3.8,0.7 7.8,0.2 11.6,0.9 2.2,1.3 3.9,3.4 5.8,5.2 1.1,1 0.5,2.5 0.6,3.8 -4.6,-0.2 -9.2,-0.5 -13.8,-0.7 -0.2,-1.7 -0.2,-3.4 -0.7,-5 -0.6,-1.7 -2.1,-3 -3.5,-4.2 z"
   id="path86" />
	<path
   class="st2"
   d="m 1983.5,584.9 c 4.4,0.2 8.8,0.6 13.2,0.8 -0.3,2.8 -0.4,5.6 -0.6,8.4 -1.4,2.6 -3,5 -4.5,7.5 -1.1,-1.1 -1.6,-2.7 -2.3,-4 -1.9,-4.3 -4.1,-8.4 -5.8,-12.7 z"
   id="path88" />
	<path
   class="st2"
   d="m 2402.2,599.7 c 2.4,-1.8 4.4,-4 7,-5.4 3.6,-0.3 7.3,0.4 10.9,0.4 -2.5,2.3 -4.2,5.4 -4.2,8.9 -6.4,-0.2 -12.8,-0.3 -19.2,-0.7 1.8,0.1 3.6,0.1 5.4,0.1 0.1,-1.1 0.1,-2.2 0.1,-3.3 z"
   id="path90" />
	<path
   class="st2"
   d="m 2427.9,594.8 c 4,0.7 8.1,0.5 12.1,0.8 2.1,2 4.2,4.1 6.4,6.2 -0.7,8.7 -1.7,17.5 -2.4,26.2 -6.3,1.1 -12.6,2 -18.9,3.1 -2.1,0.4 -4.2,-0.3 -6.2,-0.8 -3.8,-1 -7.5,-1.9 -11.3,-2.9 3.7,-6.1 7.3,-12.3 11.1,-18.3 1.8,1 3.7,2.2 5.8,2 3.6,-0.1 6.8,-3 7.5,-6.5 1,-3.7 -0.9,-7.7 -4.1,-9.8 z"
   id="path92" />
	<path
   class="st2"
   d="m 2402.2,606.6 c 4.5,0 9,0.2 13.4,0.6 -2.9,5.3 -6.2,10.5 -9.3,15.7 -1.4,-2.6 -2.8,-5.3 -4,-8 -0.1,-2.8 0,-5.6 -0.1,-8.3 z"
   id="path94" />
	<path
   class="st2"
   d="m 1924.4,642.3 c 3,-2.1 5.4,-6.1 9.6,-5.5 4.1,0.1 8.3,0.7 12.4,0.4 -2.5,1.2 -4.7,3.3 -5.3,6 -1.3,4.5 1.6,9.9 6.4,10.7 2.6,0.6 5,-0.8 7.2,-2.1 4.1,4.8 8.1,9.6 12.1,14.4 -0.3,1.5 -0.6,3 -0.9,4.5 -5.9,0.9 -11.7,1.8 -17.5,2.8 -2,0.4 -4.1,0.3 -6,-0.3 -5.9,-1.6 -11.9,-3 -17.8,-4.6 0,-8.8 -0.2,-17.6 -0.2,-26.3 z"
   id="path96" />
	<path
   class="st2"
   d="m 1952.5,637.6 c 2.8,0.4 5.7,0.1 8.5,0.5 2.2,0.2 3.4,2.3 4.8,3.7 -2.9,0.6 -5.7,1.6 -8.7,1.8 -1.3,-2.1 -2.4,-4.6 -4.6,-6 z"
   id="path98" />
	<path
   class="st2"
   d="m 1956.5,647.4 c 4,-0.9 8,-2 12,-2.6 -0.3,5.6 -1.2,11.1 -1.3,16.7 -3.2,-4 -6.6,-7.8 -9.9,-11.7 -0.6,-0.7 -0.7,-1.6 -0.8,-2.4 z"
   id="path100" />
	<path
   class="st2"
   d="m 2432,662.1 c 4,0.1 8.1,0.6 12.1,0.4 -2.7,1.3 -4.3,4 -5.2,6.8 -3.9,-1.2 -7.7,-2.6 -11.5,-3.8 1.7,-1 3.2,-2.2 4.6,-3.4 z"
   id="path102" />
	<path
   class="st2"
   d="m 2451.5,662.9 c 3,0.3 6,0.3 9,0.5 1.2,0.1 2.7,0.1 3.6,1.1 1.7,1.7 3.6,3.2 5,5.1 0.4,1.5 -0.1,3.1 -0.1,4.6 -0.7,7.2 -1.3,14.4 -2,21.6 -5.1,0.9 -10.3,1.6 -15.4,2.5 -2.4,0.4 -4.8,1 -7.1,0.4 -6.3,-1.6 -12.6,-3.2 -18.9,-4.8 -0.1,-1.4 -0.1,-2.9 -0.2,-4.3 5,-4.8 9.9,-9.7 14.9,-14.4 1.1,1 2.2,2.2 3.5,2.9 3.8,2.1 8.9,0.1 10.7,-3.8 1.9,-3.9 0.3,-8.7 -3,-11.4 z"
   id="path104" />
	<path
   class="st2"
   d="m 2425.2,668.5 c 4.4,0.9 8.6,2.6 12.8,4 -4.3,4 -8.1,8.4 -12.7,12 0,-5.3 -0.2,-10.6 -0.1,-16 z"
   id="path106" />
	<path
   class="st2"
   d="m 1912.4,712.5 c 2.3,-1.8 4.3,-4 7,-5.4 3.8,-0.4 7.5,0.3 11.3,0.4 -2.6,2 -4.6,5.1 -4.2,8.5 0.2,4.6 4.6,8.7 9.2,7.8 3.1,-0.4 5.1,-2.9 6.5,-5.5 4.6,3 8.9,6.2 13.4,9.2 -0.8,4.4 -0.9,8.9 -1.4,13.3 -5.6,1 -11.3,1.8 -16.9,2.8 -2,0.4 -4.2,0.6 -6.2,0 -6.1,-1.6 -12.3,-3.2 -18.4,-4.7 -0.2,-8.8 -0.2,-17.6 -0.3,-26.4 z"
   id="path108" />
	<path
   class="st2"
   d="m 1938.9,707.9 c 3.6,0.2 7.2,0.4 10.9,0.4 -2.5,1.3 -5,2.7 -7.5,4.1 -1.1,-1.6 -2.2,-3.1 -3.4,-4.5 z"
   id="path110" />
	<path
   class="st2"
   d="m 1944,715.1 c 2.8,-1.5 5.6,-3.1 8.5,-4.5 1.4,1.3 3.1,2.4 4,4.2 0.2,2.9 -0.5,5.7 -0.7,8.6 -4,-2.7 -8.2,-5.2 -11.8,-8.3 z"
   id="path112" />
	<path
   class="st2"
   d="m 2438.3,734.9 c 3.8,-0.1 7.7,0.5 11.5,0.2 -2,1.1 -3.4,2.8 -4.6,4.6 -2.4,-1.5 -4.7,-3.2 -6.9,-4.8 z"
   id="path114" />
	<path
   class="st2"
   d="m 2457,735.6 c 3.9,0.5 7.8,0 11.6,0.9 2.3,1.7 4.2,4 6.3,6 -0.8,8.7 -1.6,17.4 -2.4,26.1 -5.1,0.9 -10.3,1.6 -15.4,2.5 -2.4,0.4 -4.8,1 -7.1,0.4 -6.3,-1.6 -12.6,-3.2 -19,-4.8 -0.1,-4.4 -0.1,-8.8 -0.2,-13.3 4.7,-2.5 9.3,-5.2 14.1,-7.6 1.3,2.6 3.3,5.4 6.5,5.8 4.6,0.9 9,-3 9.4,-7.5 0.5,-3.4 -1.3,-6.4 -3.8,-8.5 z"
   id="path116" />
	<path
   class="st2"
   d="m 2434.9,736.8 0.2,-0.2 c 2.6,2.2 5.6,3.9 8.3,6 -4.1,2.6 -8.4,4.7 -12.5,7 0,-3.1 0,-6.2 -0.1,-9.3 1.4,-1.1 2.7,-2.3 4.1,-3.5 z"
   id="path118" />
	<path
   class="st2"
   d="m 1918.1,785.2 c 2.3,-1.8 4.3,-4 6.9,-5.4 3.8,-0.4 7.5,0.3 11.3,0.4 -2.9,2.2 -4.9,5.9 -4.1,9.6 0.7,4.6 5.8,8.1 10.4,6.4 3.3,-1 5,-4.3 5.7,-7.5 4.8,1.6 9.5,3.3 14.3,4.9 -0.2,0.1 -0.7,0.1 -0.9,0.2 -0.8,6.6 -1.2,13.1 -1.9,19.7 -5.6,1 -11.2,1.7 -16.8,2.8 -2.1,0.4 -4.2,0.6 -6.2,0 -6.1,-1.6 -12.3,-3.2 -18.4,-4.7 -0.3,-8.9 -0.3,-17.7 -0.3,-26.4 z"
   id="path120" />
	<path
   class="st5"
   d="m 1944.5,780.5 c 1.4,0.2 2.9,0.3 4.4,0.4 -0.8,0.7 -1.5,1.4 -2.3,2.1 -0.7,-0.9 -1.4,-1.7 -2.1,-2.5 z"
   id="path122" />
	<path
   class="st2"
   d="m 1949.3,785.3 c 1.5,-1.7 3.2,-3.3 4.8,-4.8 3.4,1.4 5.6,4.4 8.1,6.9 -0.1,0.8 -0.2,1.6 -0.2,2.4 -4.2,-1.5 -8.5,-2.8 -12.7,-4.5 z"
   id="path124" />
	<path
   class="st2"
   d="m 2419.5,810.1 c 2.2,-2 4.6,-4.1 7.4,-5.3 1.6,1.9 3.2,3.8 4.8,5.7 -4.4,1.2 -8.8,2.1 -13.2,3.1 0.2,-1.2 -0.1,-2.6 1,-3.5 z"
   id="path126" />
	<path
   class="st2"
   d="m 2431.8,805.5 c 1.9,0.1 3.8,0.2 5.7,0.1 -1.1,0.8 -2.2,1.7 -3.2,2.6 -0.9,-0.9 -1.7,-1.8 -2.5,-2.7 z"
   id="path128" />
	<path
   class="st2"
   d="m 2445.1,806.1 c 2.6,0.2 5.3,0.2 8,0.4 1.5,0.1 3.2,0 4.5,1.1 1.6,1.8 3.4,3.6 5.4,5 0,1.3 -0.1,2.6 -0.1,3.9 -1.4,7.5 -1.5,15.1 -2.5,22.6 -6,0.9 -11.9,1.9 -17.9,2.9 -1.9,0.4 -3.9,0.2 -5.7,-0.3 -6,-1.6 -12,-3 -17.9,-4.6 -0.2,-6.7 0.1,-13.3 -0.4,-19.9 4.6,-0.9 9.1,-2.4 13.8,-3.1 0.9,1.8 1.1,3.9 2.5,5.4 2,2.2 5.3,3.3 8.2,2.3 3.7,-1.2 6.1,-5.2 5.7,-9 -0.2,-2.7 -1.8,-4.9 -3.6,-6.7 z"
   id="path130" />
	<path
   class="st3"
   d="m 1971.5,844 c 2.4,-4.1 4.9,-8.2 7.4,-12.2 0,2.1 0.1,4.3 0.1,6.4 -1.3,1.9 -2.5,3.8 -3.6,5.9 -1.3,-0.1 -2.6,-0.1 -3.9,-0.1 z"
   id="path132" />
	<path
   class="st3"
   d="m 1991.5,841.2 c 5.4,0.2 10.8,0.6 16.3,0.9 0,0.5 0,1.4 -0.1,1.8 -5.4,0.2 -10.8,0.2 -16.1,0 -0.1,-0.9 -0.2,-1.8 -0.1,-2.7 z"
   id="path134" />
	<path
   class="st2"
   d="m 2393.5,871.9 c 1.2,-0.5 2.2,-1.5 3.5,-2 1.9,-0.3 3.8,-0.1 5.7,0 h 0.3 c 0.3,0.9 0.6,1.9 0.9,2.8 -4.8,-0.2 -9.6,-0.2 -14.3,-0.6 1.2,0 2.5,0.1 3.9,-0.2 z"
   id="path136" />
	<path
   class="st2"
   d="m 2416.5,870.6 c 3.7,0.4 7.6,-0.1 11.3,0.8 2.1,1.4 3.8,3.4 5.6,5.2 1.1,1 0.6,2.6 0.6,3.9 -0.8,7.7 -1.4,15.4 -2.2,23.1 -5.6,1 -11.3,1.8 -16.8,2.8 -2.1,0.4 -4.2,0.6 -6.2,0 -6.1,-1.6 -12.3,-3.2 -18.5,-4.7 -0.3,-8.7 0,-17.5 -0.4,-26.2 4.7,0.2 9.4,0.5 14.1,0.7 0.1,2.5 0.1,5.2 1.8,7.3 2.1,3 6.3,4.2 9.6,2.6 3.3,-1.5 5.1,-5.3 4.7,-8.9 -0.3,-2.7 -2,-4.8 -3.6,-6.6 z"
   id="path138" />
	<path
   class="st2"
   d="m 2351,926.3 c 3.1,1 6.2,2.1 9.3,3.1 -0.4,2.5 -1.1,5.3 0.1,7.7 1.3,3.4 5.1,5.7 8.8,4.9 4,-0.7 6.7,-4.7 6.6,-8.6 0,-2.8 -1.7,-5.1 -3.3,-7.2 3.6,0.4 7.4,-0.2 11,0.7 2.4,1.6 4.2,4 6.4,6 -0.8,8.7 -1.5,17.5 -2.5,26.2 -5.5,0.9 -11,1.7 -16.5,2.7 -2.2,0.4 -4.5,0.7 -6.7,0 -6.1,-1.7 -12.2,-3.1 -18.3,-4.7 -0.2,-6.8 -0.1,-13.6 -0.2,-20.5 0,-2 -0.3,-4 0.3,-5.9 1.5,-1.6 3.4,-2.8 5,-4.4 z"
   id="path140" />
	<path
   class="st6"
   d="m 2096.4,965.9 c 1,0 2,0 3,0 -0.8,2.7 -1.7,5.3 -2.9,7.8 -0.1,-2.6 -0.1,-5.2 -0.1,-7.8 z"
   id="path142" />
	<path
   class="st2"
   d="m 2295.7,967.3 c 2,-1.8 4.9,-0.9 7.4,-1 1,0.7 2.1,1.4 3,2.2 -0.5,2.2 -2,4.2 -1.7,6.5 0.1,4.4 4.1,8.5 8.6,8 4.5,-0.3 7.8,-4.8 7.4,-9.1 -0.1,-2.7 -1.8,-5 -3.6,-6.9 3.7,0.5 7.6,-0.1 11.3,0.7 2.5,1.6 4.3,4 6.5,6.1 -0.3,5 -1.3,10 -1.1,15.1 -10.1,4.1 -20.2,8.3 -30.3,12.4 -4.1,-1.4 -8.4,-2.2 -12.6,-3.4 -0.1,-8.8 -0.2,-17.5 -0.2,-26.3 1.7,-1.4 3.5,-2.9 5.3,-4.3 z"
   id="path144" />
	<path
   class="st2"
   d="m 2128.3,1007.8 c 1.7,-6.6 3.5,-13.2 5.4,-19.7 1.1,1.2 3.1,2.2 3,4.1 -1.7,5.2 -0.3,10.6 -0.5,15.9 h -0.4 c -2.6,-0.1 -5,-0.3 -7.5,-0.3 m 7,-0.5 c 0.3,-1.8 0.3,-3.6 0,-5.3 -0.4,1.7 -0.6,3.5 0,5.3 z"
   id="path146" />
	<path
   class="st2"
   d="m 2158.6,1002 c 2.4,-2.1 4.8,-4.1 7.5,-5.9 0,4 0.1,7.9 -0.1,11.9 -5,-0.1 -9.9,0.3 -14.9,0 2.5,-0.1 5,-0.1 7.5,-0.2 0,-1.9 0,-3.9 0,-5.8 z"
   id="path148" />
	<path
   class="st2"
   d="m 2182.9,998.4 c 0.2,-0.6 0.5,-1.1 0.9,-1.6 3.7,1.1 7.7,0.6 11.6,0.9 0,3.4 0.1,6.9 -0.1,10.3 -3,-0.1 -6,0 -8.9,0 0.3,-2 0.8,-4.1 -0.1,-6 -0.8,-1.5 -2.2,-2.5 -3.4,-3.6 z"
   id="path150" />
	<path
   class="st7"
   d="m 2135.3,1007.3 c -0.5,-1.8 -0.4,-3.6 0,-5.3 0.3,1.7 0.3,3.5 0,5.3 z"
   id="path152" />
	<g
   id="g306">
		<path
   class="st8"
   d="m 1759,947.4 c 0,-60.2 0,-120.4 0,-180.6 1.6,0 3.2,0 4.8,-0.1 7.6,-13.2 15.2,-26.3 22.8,-39.4 7.6,13.1 15.2,26.3 22.8,39.5 1.1,0 2.2,0 3.3,0 0.2,21 0.4,42.1 0.6,63.1 3.4,0 6.7,0 10.1,0 0,4.7 0,9.4 0,14.1 5.2,0 10.3,0 15.5,0 0,-4.7 0,-9.4 0,-14.2 4.1,0 8.2,0 12.4,0 0.1,4.7 0.1,9.4 0,14.1 5.2,0.1 10.4,0 15.6,0 0,-4.7 0,-9.4 0,-14.2 4.1,0 8.3,0 12.4,0 0,4.7 0,9.4 0,14.2 5.2,0 10.3,0 15.5,0 0.1,-4.7 -0.1,-9.5 0.1,-14.2 4.1,0.1 8.3,0 12.4,0 0,4.7 0,9.4 0,14.1 5.2,0 10.4,0 15.6,0 0,-4.7 0,-9.4 0,-14.1 4.1,0 8.3,0 12.5,0 0,4.7 0,9.4 0,14.1 5.2,0 10.4,0 15.6,0 0,-4.7 0,-9.4 0,-14.1 4.2,0 8.3,-0.1 12.5,0.1 -0.1,4.7 0,9.4 -0.1,14 2.7,0.1 5.4,0.1 8.1,0 2.4,-4.1 4.9,-8.2 7.4,-12.2 0,-0.4 0.1,-1.1 0.2,-1.5 0.7,-0.6 1.5,-1.2 2.2,-1.8 0.3,0.5 0.6,1 1,1.5 3,0 6,-0.1 9,0 0.1,0.3 0.2,0.8 0.2,1 4.1,-6.9 8.4,-13.7 12.6,-20.6 0.9,-1.1 0.2,-2.5 -0.2,-3.7 -1.4,-3.8 -2.6,-7.6 -3.9,-11.4 -10.6,-3.7 -21.3,-7.4 -32,-11.1 0.7,4.1 1.6,8.1 2.3,12.1 -2.6,-0.8 -5.2,-1.8 -7.8,-2.7 -0.2,0.1 -0.7,0.1 -0.9,0.2 -0.8,6.6 -1.2,13.1 -1.9,19.7 -5.6,1 -11.2,1.7 -16.8,2.8 -2.1,0.4 -4.2,0.6 -6.2,0 -6.1,-1.6 -12.3,-3.2 -18.4,-4.7 -0.2,-8.8 -0.2,-17.5 -0.2,-26.3 2.3,-1.8 4.3,-4 6.9,-5.4 3.8,-0.4 7.5,0.3 11.3,0.4 2.7,-0.9 5.6,-0.8 8.2,0.4 1.4,0.2 2.9,0.3 4.4,0.4 5.2,-4.9 10.3,-9.9 15.5,-14.8 0.9,4 1.6,8 2.5,12 8.4,-7.9 16.7,-15.8 24.9,-23.8 -0.4,-4.2 -0.8,-8.3 -1,-12.5 -0.1,-1.3 0,-3 -1.3,-3.7 -9,-6.3 -18,-12.6 -27.1,-18.8 -0.2,4.1 -0.4,8.2 -0.6,12.3 -2.1,-1.4 -4.1,-2.8 -6.1,-4.2 -0.8,4.4 -0.9,8.9 -1.4,13.3 -5.6,1 -11.3,1.8 -16.9,2.8 -2,0.4 -4.2,0.6 -6.2,0 -6.1,-1.6 -12.3,-3.2 -18.4,-4.7 -0.2,-8.8 -0.2,-17.5 -0.3,-26.3 2.3,-1.8 4.3,-4 7,-5.4 3.8,-0.4 7.5,0.3 11.3,0.4 2.7,-0.9 5.6,-0.8 8.2,0.4 3.6,0.2 7.2,0.4 10.9,0.4 4.5,-2.4 9,-4.9 13.5,-7.2 -0.2,4.1 -0.4,8.2 -0.6,12.4 10,-5.3 19.9,-10.7 29.9,-16.1 0.6,-4.7 1.5,-9.4 2.4,-14 -7.5,-8.9 -15,-17.8 -22.5,-26.6 -1.2,3.9 -2.4,7.8 -3.6,11.7 -0.7,-0.7 -1.3,-1.5 -2,-2.2 -0.3,1.5 -0.6,3 -0.9,4.5 -5.9,0.9 -11.7,1.8 -17.5,2.8 -2,0.4 -4.1,0.3 -6,-0.3 -5.9,-1.6 -11.9,-3 -17.8,-4.6 0,-8.8 -0.2,-17.5 -0.2,-26.3 3,-2.1 5.4,-6.1 9.6,-5.5 4.1,0.1 8.3,0.7 12.4,0.4 2,-0.3 4.1,-0.1 6.1,0.4 2.8,0.4 5.7,0.1 8.5,0.5 2.2,0.2 3.4,2.3 4.8,3.7 4,-0.8 7.9,-1.8 11.9,-2.6 -1.2,3.9 -2.4,7.8 -3.6,11.7 10.9,-2.4 21.8,-4.9 32.7,-7.4 1.9,-4.4 3.8,-8.9 5.9,-13.2 -5.1,-10.7 -10.2,-21.4 -15.4,-32 -1.4,2 -2.4,4.2 -3.2,6.6 -1.3,1 -2.3,2.3 -3.2,3.6 -0.3,-0.7 -0.7,-1.4 -1,-2 -4.5,0.3 -8.9,1.3 -13.3,2 -1.7,0.3 -3.4,0.2 -5,-0.2 -6.1,-1.6 -12.3,-3.1 -18.4,-4.7 -0.1,-8.3 -0.2,-16.7 -0.2,-25 -0.1,-1.8 1.8,-2.7 2.9,-3.8 1.7,-1.2 3.1,-3.2 5.4,-3 3.6,0 7.2,0.7 10.8,0.2 2.2,-0.6 4.6,-0.4 6.7,0.5 3.8,0.7 7.8,0.2 11.6,0.9 2.2,1.3 3.9,3.4 5.8,5.2 1.1,1 0.5,2.5 0.6,3.8 3.2,0.2 6.4,0.4 9.7,0.6 -1.9,3.6 -4.2,6.9 -6.2,10.5 11.2,0.7 22.4,1.3 33.6,1.9 3,-3.9 6.1,-7.8 9.3,-11.6 -1.3,-6.9 -2.7,-13.9 -4.1,-20.8 -1,-4.7 -1.7,-9.4 -2.9,-14 -3.1,2.3 -5.9,5 -8.7,7.7 -0.3,-1.5 -0.6,-3.1 -0.9,-4.6 -3.5,0.4 -7.1,1.7 -10.7,0.7 -6.1,-1.6 -12.3,-3.2 -18.5,-4.7 -0.2,-8.8 -0.2,-17.5 -0.2,-26.3 2.3,-1.8 4.3,-4 6.9,-5.4 3.8,-0.4 7.5,0.4 11.3,0.4 2.7,-0.9 5.6,-0.8 8.2,0.4 3.3,0.3 6.7,0.1 10,0.5 1.1,0 2.1,0.8 2.9,1.5 1.6,1.6 3.5,3 4.6,5 0.1,3 -0.5,6 -0.7,9 2.8,1 5.7,2 8.6,3 -2.7,2.9 -6,5.2 -8.4,8.4 9.2,3.4 18.6,6.4 27.8,9.8 1.3,0.4 2.6,1.1 4.1,1.1 1.8,-1 3.2,-2.4 4.9,-3.5 -0.5,-11.9 -0.5,-23.8 -0.7,-35.6 -0.7,0.3 -1.4,0.7 -2,1 0,-1.5 0.1,-2.9 0.2,-4.4 -7.5,-1.4 -14.8,-3.6 -22.2,-5.4 -0.2,-7 -0.1,-14.1 -0.2,-21.1 0.1,-1.8 -0.4,-3.7 0.4,-5.3 2,-2 4.1,-3.8 6.5,-5.2 3.7,-0.4 7.5,0.4 11.3,0.4 1.5,-0.4 3.1,-0.7 4.7,-0.7 -1.5,-8.9 -4.9,-17.3 -9.3,-25.1 -5.8,-10.6 -12.9,-20.5 -17.7,-31.6 -9.1,-0.8 -18.3,-0.8 -27.4,-1.5 -0.6,-18.8 1.4,-37.7 -0.4,-56.5 -1,-11.2 -5.9,-21.4 -10.3,-31.6 -3.5,-7.8 -6.8,-15.8 -8.7,-24.2 -28,-0.5 -56.1,-0.3 -84.1,-0.6 -2.3,-57.6 0.8,-115.2 0.1,-172.8 0,-10.7 0.4,-21.4 0.5,-32.1 -0.2,-2.8 0,-6.6 -3,-7.9 -2.6,-0.9 -5.6,-1.4 -8.3,-1 -2,3.1 -2.3,7 -2.9,10.5 -1.8,14.4 -2.1,28.9 -2.4,43.4 -0.6,44.1 0.7,88.2 1.3,132.3 0,9.3 0.4,18.7 -0.1,28 -18.7,0.1 -37.4,0.3 -56,0.5 -0.2,17 -0.1,34 -0.3,50.9 -6.6,1 -13.2,1.6 -19.7,2.7 -0.2,19.8 -0.3,39.6 -0.5,59.4 -8.9,0.1 -17.9,-0.3 -26.8,0 0,15.5 0.1,31 -0.2,46.5 -9,0.2 -18,0.3 -27,0.7 -0.4,88.2 -1,176.4 -1.4,264.6 -0.1,7.5 0.1,15.1 -0.2,22.6 -9.5,-0.2 -19.1,-0.6 -28.6,-0.6 0,65.1 0,130.3 0,195.4 5.6,-0.4 11.2,-0.4 16.8,-0.4 z"
   id="path154" />
		<path
   class="st8"
   d="m 922.9,458.5 c -0.1,-3 0,-6.2 1.8,-8.7 1.1,0.3 2.3,0.4 3.3,1 1.1,0.9 1.2,2.4 1.5,3.7 0.4,3.3 0.3,6.5 0.5,9.8 0.1,7 1.1,13.9 1.1,21 -1.9,0.2 -3.6,-0.4 -5.2,-1.2 0.2,5 0.9,10.1 -0.9,14.9 -1.5,-2.1 -2,-4.6 -2.1,-7.1 -0.7,0 -1.4,0.1 -2,0.1 -0.1,7.8 0.1,15.7 0.1,23.5 1.7,0 3.4,0 5.2,0 -0.2,-2.4 -0.7,-4.8 -0.9,-7.3 -0.2,-2.3 0.6,-4.5 1.3,-6.6 0.5,-0.1 1.4,-0.2 1.9,-0.2 1,1.6 1.8,3.3 2.3,5 2.4,-0.6 4.7,-0.1 6.8,1.2 -0.7,1.1 -1.5,2.2 -2.4,3.1 0.2,-0.5 0.6,-1.4 0.8,-1.8 -1.7,0.5 -3.7,0.5 -5.2,1.6 -1.5,1.5 -1.1,3.8 -1.2,5.8 2.5,1.4 6.1,3 6,6.4 -0.6,3.1 -3.7,4.8 -5.7,6.9 1,0.7 2,1.3 3.1,2 0.6,-0.6 1.2,-1.2 1.8,-1.8 0.9,0.6 1.9,1.1 2.6,2 -0.1,1.2 -0.5,2.3 -0.9,3.4 -1.9,-0.7 -3.8,-1.1 -5.8,-0.7 -1.3,5.4 -0.1,11.3 -2.5,16.5 -1.8,-3.1 -1.4,-6.8 -1.9,-10.2 -1.7,0 -3.4,0 -5.1,0 0,39 0,78 0,117 3.3,0.4 6.5,-0.6 9.3,-2.3 0.1,2.4 0.3,4.7 0.4,7.1 3.3,-1.2 6.8,-4.3 10.4,-2.3 3.5,2.8 3.8,8.8 0.9,12.1 -1.8,1.2 -4.2,1.4 -6.3,1 -1.7,-1.1 -3.2,-2.5 -5.2,-2.9 -0.1,11.8 -0.1,23.6 -0.2,35.4 -1.1,-0.2 -2.2,-0.5 -3.3,-0.7 0.5,-0.3 0.9,-0.7 1.4,-1 -2.4,-0.6 -5,-0.9 -7.5,-0.8 0,110.9 0,221.8 0,332.8 25,0 49.9,0 74.9,0 0.1,-102.4 0,-204.9 0.1,-307.3 0.1,-3.9 -0.4,-7.9 -0.2,-11.8 0.1,-3.5 2.3,-6.5 4.4,-9.2 3.3,-4 6.8,-8 9.4,-12.5 2.3,0 4.7,0 7,0 -0.1,-6.1 0,-12.2 -0.1,-18.3 0,-3.2 -0.4,-6.4 0.7,-9.5 0,-4.7 -0.1,-9.4 0,-14.2 -1.3,-3.8 -0.5,-7.9 -0.7,-11.8 0.2,-4.3 -0.5,-8.6 0.5,-12.8 -3.4,-4.1 -1.1,-10 -4.2,-14.2 -4.9,-7.7 -8.7,-16 -12.2,-24.4 -1.6,-3.6 -2.3,-7.6 -4,-11.2 -1.4,-3.1 -4.6,-4.8 -6.7,-7.3 0.5,-0.9 1.1,-1.9 1.6,-2.8 1.4,0.7 2.9,1.5 4.4,1.8 1.3,-0.7 1.3,-2.4 1.9,-3.6 1.1,2.3 2,4.7 3.5,6.8 1.9,-0.6 3.8,-1.1 5.8,-1.5 -1.5,2.5 -4.4,4.7 -3.7,7.9 0.7,3.2 2.5,6 3.9,8.9 2.7,5.1 5.5,10.2 8.9,14.9 0.5,-4.7 0.2,-9.5 0.2,-14.3 -0.2,-100.3 -0.5,-200.5 -0.7,-300.8 -0.1,-3.1 0.5,-6.4 -0.7,-9.4 -18.9,-41.7 -37.8,-83.5 -56.7,-125.3 -4.5,-9.8 -8.7,-19.7 -13.4,-29.3 -0.3,96.8 -0.2,193.6 -0.4,290.3 -0.2,8.3 0.2,16.6 -0.2,25 -7.8,0.2 -15.5,0.4 -23.3,0.7 0.1,5.8 0.1,11.6 0.2,17.4 0.2,0.1 0.9,0.1 1.6,0.1 z"
   id="path156" />
		<path
   class="st8"
   d="m 1097.2,1036.2 c 11,0 22,0 33,0 0,-17.8 0,-35.6 0,-53.5 40.1,-0.7 80.2,-1.4 120.3,-2.1 0.1,-134.6 -0.1,-269.3 0.1,-403.9 5.3,0 10.6,-0.1 15.8,-0.2 0,-4.7 -0.2,-9.4 -0.2,-14.1 7.4,-0.1 14.7,-0.1 22.1,-0.1 0,4.8 0,9.6 0,14.4 2.3,0.1 4.7,0.1 7,0.1 0.1,-17.3 0.1,-34.6 0.2,-51.9 14.5,0 29.1,0 43.6,0 0.2,-28.1 0,-56.1 0,-84.2 0,-22.9 0,-45.7 -0.1,-68.6 -12,-0.5 -24,-1 -36,-1.4 -0.3,-16.3 0,-32.6 -0.1,-48.8 0,-24.7 0.1,-49.5 0.1,-74.2 -11.5,0.6 -23.1,1.1 -34.6,1.7 0.2,41.1 0.3,82.2 0.4,123.2 -16.8,-0.6 -33.7,-1.3 -50.5,-2 0.2,-33.5 1.6,-67 0.3,-100.5 -0.2,-5.7 -0.6,-11.4 -1.4,-17.1 -0.3,-1.7 -0.5,-3.5 -1.3,-5 -2.8,-0.4 -5.7,-0.1 -8.5,-0.1 -20.2,0 -40.3,0 -60.5,0 -1,6.2 -1,12.5 -1.2,18.8 -0.4,27.6 1.2,55.2 0.7,82.8 -0.3,6.6 -0.3,13.2 -1.7,19.7 -0.4,1.3 -0.7,3.1 -2.2,3.5 -1.4,-0.3 -2.7,-0.8 -4,-1.3 -2.3,5.2 -1.7,11 -1.8,16.5 -0.3,96.9 -0.4,193.7 -0.8,290.6 -0.1,58.4 -0.2,116.7 -0.4,175.1 -12.8,0.2 -25.6,0.2 -38.4,0.2 0,-12.1 0.2,-24.3 -0.1,-36.4 -0.1,13.4 -0.3,26.7 -0.1,40.1 0,59.4 -0.3,119.1 0.3,178.7 z"
   id="path158" />
		<path
   class="st8"
   d="m 1480.6,842.9 c -0.6,4.3 0,8.7 -0.3,13 3.7,0.1 7.5,0 11.2,0.1 0,6 0,11.9 0,17.9 -3.7,0.2 -7.4,-0.3 -11.1,0.2 -0.2,4.3 -0.1,8.6 0,13 3.7,-0.1 7.4,0 11.1,0 0,6 0,11.9 0,17.9 -3.7,0 -7.5,-0.1 -11.2,0.1 0.1,4.4 0,8.8 0.1,13.2 3.7,0 7.4,0 11.1,0 0,6 0.1,11.9 0,17.9 -3.7,0 -7.4,0 -11.1,0 0,4 0,8.1 0,12.1 3.7,0 7.4,0 11.2,0.1 -0.1,5.9 0,11.9 0,17.8 -3.7,0 -7.4,0 -11.1,0 0,4.1 -0.1,8.1 0,12.2 3.7,0 7.4,0 11.1,0 0,6 0,11.9 0,17.9 -3.7,0 -7.5,0 -11.2,0.1 0,4 0,8.1 0,12.1 3.3,0.2 6.7,-0.4 10.1,0.2 7.6,7.9 14.7,16.3 22.2,24.4 0,-130.8 0,-261.6 0,-392.4 39.3,-17 78.6,-34 117.9,-51 -0.4,58.1 -0.1,116.2 -0.2,174.3 0,90.8 0,181.6 0,272.4 5,0 10,0 15.1,0 0,-135.4 0,-270.9 0,-406.3 6.5,0 13,0 19.5,0 0,-2.5 -0.1,-5 -0.1,-7.4 -6.5,0 -12.9,0 -19.4,0 0,-27.9 -0.1,-55.8 0.1,-83.7 30.1,0.1 60.2,0 90.3,0 0.2,-24.6 0,-49.3 0.2,-73.9 -8.2,-0.3 -16.4,-0.1 -24.5,-0.3 -1,0.1 -1.6,-0.5 -1.4,-1.5 -0.4,-18 -0.3,-36.1 -0.8,-54.2 -8.9,-0.6 -17.8,-1 -26.6,-1.6 -0.2,-10.4 0,-20.9 -0.2,-31.3 -10.4,-0.3 -20.8,-0.1 -31.1,-0.7 -0.5,-9.5 -0.9,-19 -1.5,-28.6 -45.2,0 -90.3,-0.1 -135.5,-0.1 -0.4,39.4 -0.5,78.7 -0.7,118.1 -7.4,0.1 -14.8,0 -22.2,0.1 0,2.9 0,5.8 0,8.8 -3.7,0 -7.4,0 -11.2,0 0,4.2 0,8.3 0,12.5 3.7,0 7.4,0 11.1,0 0,5.9 0,11.9 0,17.9 -3.7,0.1 -7.4,0 -11.2,0 0,4.4 0,8.9 0,13.3 3.7,0 7.4,0 11.2,0.1 -0.1,5.9 0,11.9 0,17.8 -3.7,0 -7.4,0 -11.1,0 0,4.1 0,8.2 0,12.3 3.7,0 7.4,0 11.1,0 0,5.9 0,11.9 0,17.8 -3.7,0.1 -7.4,0 -11.2,0.1 0,4.1 0,8.2 0,12.2 3.7,0 7.4,0 11.2,0 0,5.9 0,11.9 0,17.8 -3.7,0 -7.4,0 -11.1,0 0,4.1 0,8.2 0,12.3 3.7,0 7.4,0 11.1,0 0,5.9 0,11.9 0,17.8 -3.7,0.1 -7.5,0 -11.2,0.1 0,4.4 0,8.7 0,13.1 3.7,0 7.4,0 11.1,0 0,6 0.1,11.9 0,17.9 -3.7,0 -7.4,0 -11.1,0 0,4.4 0,8.7 0,13.1 3.7,0 7.4,0 11.1,0 0,6 0,11.9 0,17.9 -3.7,0 -7.4,0 -11.1,0 0,4.4 0,8.7 0,13.1 3.7,0 7.4,0 11.1,0 0,6 0,11.9 0,17.9 -3.7,0 -7.4,0 -11.1,0 0,4.4 0,8.7 0,13.1 3.7,0 7.4,0 11.1,0 0.1,6 0,11.9 0,17.9 -3.7,0 -7.4,0 -11.1,0 0,4.4 0,8.8 0,13.1 3.7,0 7.5,0 11.2,0.1 -0.1,5.9 0,11.9 0,17.8 -3.7,0 -7.4,0 -11.1,0 0,4.4 0,8.7 0,13.1 3.7,0 7.4,0 11.2,0.1 0,5.9 0,11.9 0,17.9 -3.7,0 -7.4,0 -11.1,0 0,4.4 0,8.7 0,13.1 3.7,0.1 7.4,0 11.1,0 0,6 0,11.9 0,17.9 -3.7,0 -7.4,-0.3 -11,0 z"
   id="path160" />
		<path
   class="st8"
   d="m 327.2,753.9 c -7.3,-1.2 -14.5,-2.5 -21.8,-3.8 -0.2,-25.6 -0.5,-51.2 -0.8,-76.8 -5.2,-0.2 -10.6,0.7 -15.5,-1.5 -1.5,-0.7 -2.8,-1.6 -4.1,-2.6 0.4,-21.5 0.5,-43 0.8,-64.4 0,-2.5 0.3,-5 0,-7.4 -0.7,-0.8 -1.6,-1.4 -2.5,-2 0,-41.6 0,-83.2 0.1,-124.8 2.2,0 4.3,-0.1 6.5,-0.2 -0.1,-3 -0.1,-6 0,-9 42.9,-0.4 85.8,-1 128.7,-1.5 10.6,-0.3 21.2,0 31.9,-0.5 -2,-2.3 -5.1,-1.9 -7.8,-2.3 6.6,-0.3 13.3,0 19.8,-1.3 4.7,-1 9.4,0.2 13.8,1.9 2.4,1 5,1.6 7.7,1.5 31.4,-0.6 62.7,-1.2 94.1,-1.8 7.3,-0.2 14.7,-0.1 22,-0.6 0.5,-1.6 0,-3.3 -1.4,-4.3 -4.9,-3.9 -10.3,-7.5 -13.6,-13 -0.4,-0.7 -1.4,-0.6 -2,-0.8 -9,-1 -17.8,-3.1 -26.7,-5.2 -23.7,-5.6 -47.1,-12.4 -70.8,-18.2 -24.1,-6 -48.2,-11.8 -72,-18.7 -28.2,-7.9 -57,-13.9 -85.2,-21.7 -10.7,-2.9 -21.4,-5.9 -32.3,-8.4 -12,-3 -23.9,-6.1 -35.9,-9.2 -2.2,-0.5 -4.4,-1.4 -6.6,-1.5 -2.1,0.9 -3.8,2.6 -5.8,3.9 -33.7,23.9 -67.3,48 -101,71.9 -2.2,-1.6 -4.9,-2.8 -7.6,-2 -2.3,0.5 -3.7,2.8 -4.1,5 -0.7,3.8 -0.3,7.7 0.3,11.5 1.5,0.2 3,0.5 4.5,0.7 0,1.1 0,2.3 0,3.4 -5.1,0.1 -10.2,0.1 -15.2,0.2 -1,0.1 -2.9,-0.3 -2.6,1.4 -0.1,5.9 0,11.9 0,17.8 12.5,0.2 25.1,0.1 37.6,0.2 0.9,-6.3 0.8,-12.7 0.1,-18.9 -5.9,-0.3 -11.8,-0.2 -17.7,-0.3 0,-1.3 0,-2.6 0,-3.9 8.9,0.5 17.7,1.9 26.5,2.9 20.5,2.7 41,5.5 61.4,8.8 4.3,0.7 8.7,1.4 12.9,2.4 0,3 0.1,6 0.2,9.1 2,0.3 3.9,0.7 5.9,1 0.1,32.1 0.3,64.2 0.6,96.3 0.1,23 0.3,46.1 0.1,69.1 6,0.2 12,0.1 18,0.1 0,116.6 0,233.1 0,349.7 23.2,-22.3 46.4,-44.7 69.6,-67.1 0,-35.5 0,-71.1 0,-106.6 -3.3,0 -6.6,-0.1 -9.9,-0.1 -0.3,-19.5 -0.1,-39 -0.2,-58.4 z M 390.3,458 c -29.9,0.6 -59.7,0.6 -89.6,1.1 -3.4,0.1 -6.8,0.2 -10.2,-0.2 3.2,-0.7 6.4,-0.6 9.7,-0.7 32.1,-1.1 64.2,-0.3 96.3,-0.7 11.8,0.1 23.7,-0.1 35.5,0.2 -13.9,0.3 -27.8,0.2 -41.7,0.3 z M 249,373.6 c 0.3,5.6 0.1,11.2 0.1,16.9 -0.1,16.7 -0.1,33.5 -0.2,50.2 -1.7,0.4 -3.7,0.4 -5.1,1.6 -1,1.4 -1.1,3.2 -1.5,4.8 -20.1,-3 -40.2,-5.9 -60.3,-8.9 -9.2,-1.4 -18.4,-2.6 -27.6,-4.2 5.9,-4.6 12.3,-8.6 18.4,-13 17.5,-13 35.6,-25.2 53.4,-37.8 8.3,-6 16.6,-12 24.9,-18 0.1,1.3 0.3,2.7 0.1,4 -0.2,1.6 -2.5,2.4 -2.2,4.4 z m 12.5,85.1 c -3.9,0 -7.9,0.1 -11.8,-0.2 0,-4 -0.1,-8 -0.2,-12 4.1,0 8.2,0.1 12.3,0.3 -0.1,4 -0.2,7.9 -0.3,11.9 z m 1.2,-97.8 c -0.4,-0.2 -1.1,-0.6 -1.5,-0.8 1.5,0.1 3.1,0.4 4.6,0.8 27.9,7.5 55.9,14.2 83.7,21.9 16.2,4.3 32.6,7.7 48.8,11.9 10.9,2.7 21.5,6.1 32.3,9 13.9,3.7 27.9,6.9 41.9,10.3 12.2,2.9 24.4,6.4 36.6,9.5 12.4,3.2 24.8,6.1 37.1,9.3 7.2,1.9 14.5,3.6 21.6,6.1 -4.5,0.7 -9.1,0.4 -13.6,0.7 -17.5,0.3 -34.9,0.3 -52.4,0.4 -12.4,0.1 -24.8,-0.1 -37.1,0.3 -10.9,0.2 -21.8,0.6 -32.7,0.3 -2.6,-0.1 -5.3,0 -7.7,-1.2 -53.9,-26.2 -107.8,-52.3 -161.6,-78.5 z m 7.9,97.7 c 0,-4 0.3,-8.1 0.3,-12.1 3.9,-0.1 7.7,0.3 11.6,0.5 0,3.8 0,7.7 0.1,11.6 -4,0.1 -8,0.1 -12,0 z m 12.5,-20.2 c 1,-10.7 0.1,-21.5 0.2,-32.2 0.2,-11.1 0,-22.2 -0.1,-33.2 5.5,2.2 10.6,5.2 15.9,7.8 37.5,18.3 75.1,36.5 112.6,54.7 3.2,1.7 6.6,3 9.7,4.9 -32.1,0.3 -64.3,1 -96.4,1.1 -9.2,0.1 -18.4,0.1 -27.7,0.2 -4.5,0.1 -9.3,0.6 -13.5,-1.2 -1.1,-0.1 -0.6,-1.4 -0.7,-2.1 z"
   id="path162" />
		<path
   class="st8"
   d="m 1392.7,524.8 c 0,118.2 0,236.3 0,354.5 0,52.3 -0.1,104.6 0.1,156.9 4.6,-0.1 9.2,0 13.8,0 0,-9.3 0,-18.6 0,-27.9 4,0 8,0 12,0 0,-4.1 0,-8.1 -0.1,-12.2 -4,0.1 -8,0 -12,0 0,-6 0,-11.9 0,-17.9 4,0 8,0 12,0 0,-4.1 0,-8.1 0,-12.2 -4,0 -8,0 -12,0 0.1,-5.9 -0.1,-11.8 0.1,-17.6 3.9,-0.6 8,-0.1 11.9,-0.3 0,-4 0,-8.1 0,-12.1 -4,0 -8,0 -12,0 -0.1,-6 0,-11.9 0,-17.9 4,0 8,0 12,0 0,-4.4 0,-8.8 0,-13.2 -4,0 -8,0 -12,0 0,-6 0,-11.9 0,-17.9 4,0 8,0 12,0 0.1,-4.4 0,-8.8 0,-13.2 -4,0 -8,0 -12,0 0,-6 0,-11.9 0,-17.9 4,0 8,0 12,0 0,-4.4 0,-8.8 0,-13.1 -4,0 -8,0 -12,0 0,-5.9 0,-11.9 0,-17.8 4,-0.1 8,0 12,-0.1 0,-4.4 0,-8.7 0,-13.1 -4,0 -8,0 -12,0 0,-5.9 0,-11.9 0,-17.8 4,-0.1 8,0 12,-0.1 0,-4.4 0,-8.7 0,-13.1 -4,0 -8,0 -12,0 0,-5.9 0,-11.9 0,-17.8 4,-0.1 8,0 12.1,-0.1 0,-4.4 0,-8.7 0,-13.1 -4,0 -8,0 -12,0 0,-6 -0.1,-11.9 0,-17.9 4,0 8,0 12,0 0,-4.4 0,-8.7 0,-13.1 -4,0 -8,0 -12,0 0,-6 0,-11.9 0,-17.9 4,0 8,0 12,0 0,-4.4 0,-8.8 0,-13.1 -4,0 -8,0 -12,0 0,-6 0,-11.9 0,-17.9 4,0 8,0 12,0 0,-4.4 0,-8.7 0,-13.1 -4,0 -8,0 -12,0 -0.1,-6 0,-11.9 0,-17.9 4,0 8,0 12,0 0,-4.4 0,-8.7 0,-13.1 -4,0 -8,0 -12,0 0,-5.9 0,-11.9 0,-17.8 4,-0.2 8,-0.1 12.1,-0.1 0,-4.1 0,-8.2 0,-12.3 -4,0 -8,0 -12,0 0,-5.9 0,-11.9 0,-17.8 4,-0.1 8,0 12.1,-0.1 0,-4.1 0,-8.2 0,-12.2 -4,0 -8,0 -12,0 0,-6 0,-11.9 0,-17.8 4,0 8,0 12,0 0,-4.1 0,-8.2 0,-12.3 -4,0 -8,0 -12,0 0,-6 -0.1,-11.9 0.1,-17.9 4,0.1 8,0 12,0 0,-4.4 0,-8.9 0,-13.3 -4,0 -8,0 -12,-0.1 0.1,-5.9 0,-11.9 0,-17.8 4,0 8,0 12,0 0,-4.2 0,-8.3 0,-12.5 -4,0 -8,0 -12,0 0,-2.9 0,-5.7 0,-8.6 -16.4,0.2 -32.8,0 -49.2,0.3 0,19.8 0.1,39.7 -0.1,59.5 11.5,-0.2 23.3,-0.2 35.1,-0.2 z"
   id="path164" />
		<path
   class="st8"
   d="m 2068.9,557.7 c -9.7,-3.5 -19.4,-6.8 -29.1,-10.2 2.1,10.7 4.2,21.3 6.3,32 4.1,-3.7 8,-7.6 12,-11.5 3.5,-3.4 7.3,-6.7 10.8,-10.3 z"
   id="path166" />
		<path
   class="st8"
   d="m 760.1,924.5 c 31.6,-0.5 63.1,-0.9 94.7,-1.4 0,-50.9 0,-101.7 0,-152.6 -3.8,0.1 -7.6,0.6 -11.3,0.3 -0.7,-6.5 0.1,-13.1 0.1,-19.7 -1.4,-0.7 -2.8,-1.3 -4.2,-1.9 -0.4,-0.9 -0.8,-1.8 -1.1,-2.7 1.8,-1 3.5,-2.1 5.3,-3.2 -0.2,-4.2 0,-8.4 0.1,-12.5 -2.1,0.3 -3.7,1.7 -5.2,3.1 -2.1,0.5 -4.2,-0.4 -6.3,-0.8 -0.7,-1.5 -1.8,-3.1 -1.8,-4.8 0.3,-2.2 1.4,-4.2 2.2,-6.3 2,0 4.1,-0.3 6,0.2 1.4,0.7 2.6,1.9 3.9,2.8 0.4,-1.5 0.8,-3 1.3,-4.4 3.6,1 7.3,1.3 11.1,1.2 -0.1,-5 -0.1,-10.1 -0.2,-15.1 -2,3.7 -4.9,7 -8.8,8.7 -8.6,4.2 -20,3.5 -27,-3.4 -3.1,-3 -4.8,-7.1 -5.5,-11.3 0,0.5 0.1,1.5 0.2,2 -5,-0.1 -10,-0.2 -15,-0.4 -0.9,-12.1 0.4,-24.3 -0.3,-36.4 -0.4,-6 -0.7,-12.3 -4.2,-17.5 -3.7,-5.7 -3.8,-12.7 -3.9,-19.2 0,-21.2 2.8,-42.4 1.5,-63.7 -0.6,-6 -1.1,-12.4 -4.3,-17.7 -3.4,3.5 -3.9,8.6 -4.7,13.2 -1.5,11.8 -1.6,23.7 -1.5,35.5 0.1,17.1 1.1,34.2 1.7,51.3 -7.6,0.2 -15.2,0.2 -22.8,0.4 0,92.1 0,184.2 0,276.3 z"
   id="path168" />
		<path
   class="st8"
   d="m 2173.4,702.6 c 1.4,-1 2.7,-2 4,-3 -12.3,-25.5 -24.6,-51 -36.9,-76.5 -9.5,-19.8 -19.2,-39.5 -28.6,-59.4 h -0.1 c -3.5,0.9 -7.1,0.3 -10.6,0.4 -7.6,-0.1 -15.2,0 -22.8,-0.3 -0.2,-2.7 -0.3,-5.5 -0.4,-8.2 -5.9,4.5 -11.6,9.3 -17,14.5 37.4,44.2 75,88.3 112.4,132.5 z"
   id="path170" />
		<path
   class="st8"
   d="m 2193.6,695.1 c 2.1,-43.4 4.2,-86.9 6.3,-130.3 -8.9,0 -17.7,-0.1 -26.6,-0.1 -3.9,-0.1 -7.8,0.2 -11.7,-0.4 9,43.7 17.9,87.4 26.8,131.1 1.7,-0.2 3.4,-0.3 5.2,-0.3 z"
   id="path172" />
		<path
   class="st8"
   d="m 2205,697.2 c 1.5,0.7 3,1.5 4.5,2.3 10.3,-17 20.5,-34.1 30.8,-51.1 11.2,-18.4 22.1,-36.9 33.4,-55.2 v -0.3 c -0.8,-9.1 -0.3,-18.3 -1,-27.4 -9.2,-0.1 -18.3,0 -27.5,-0.2 0,-0.3 0,-0.9 0,-1.3 -13.4,44.3 -26.8,88.8 -40.2,133.2 z"
   id="path174" />
		<path
   class="st8"
   d="m 2185.2,696.2 c -8.9,-43.9 -17.9,-87.8 -26.9,-131.7 -14.1,-0.1 -28.3,-0.3 -42.4,-0.3 21.5,44.6 43,89.2 64.7,133.7 1.4,-0.5 3,-1.1 4.6,-1.7 z"
   id="path176" />
		<path
   class="st8"
   d="m 2201.8,696.2 c 13.2,-43.7 26.4,-87.4 39.6,-131 -12.7,-0.1 -25.5,-0.1 -38.2,-0.4 -2.1,43.5 -4.2,86.9 -6.2,130.4 1.6,0.3 3.2,0.6 4.8,1 z"
   id="path178" />
		<path
   class="st8"
   d="m 2167.6,709.2 c 1.2,-1.4 2.3,-2.8 3.5,-4.3 -37.6,-44.1 -75,-88.3 -112.5,-132.5 -12.4,12 -23.2,25.5 -32.1,40.2 47,32.2 94,64.4 141.1,96.6 z"
   id="path180" />
		<path
   class="st8"
   d="m 1996.7,585.7 c -0.3,2.8 -0.4,5.6 -0.6,8.4 1.8,-2.7 3.4,-5.4 5,-8.2 -1.5,-0.1 -3,-0.2 -4.4,-0.2 z"
   id="path182" />
		<path
   class="st8"
   d="m 848.8,605.9 c 2,0 4,0 6,0 0.1,-6.3 -0.2,-12.7 0.2,-19 -1.4,0 -2.7,0.1 -4.1,0.2 -0.2,2 -0.6,4 -1.8,5.7 -2,-1 -1.4,-3.8 -1.6,-5.7 -0.7,0.1 -1.4,0.1 -2,0.2 -0.2,5.1 0,10.1 -0.2,15.2 1.1,-0.3 2.2,-0.5 3.3,-0.8 0.1,1.4 0.1,2.8 0.2,4.2 z"
   id="path184" />
		<path
   class="st8"
   d="m 2014.3,625.7 c 5.5,-9.1 11.2,-18.2 16.6,-27.4 -10.2,-0.6 -20.4,-1.1 -30.6,-1.7 4.7,9.8 9.3,19.5 14,29.1 z"
   id="path186" />
		<path
   class="st8"
   d="m 2273.5,599.9 c -9.2,14.9 -18.1,29.9 -27.2,44.9 -11.3,18.9 -22.8,37.7 -34.1,56.6 1.3,1.1 2.6,2.3 3.9,3.5 19.2,-18.3 38.3,-36.8 57.4,-55.2 0.1,-16.5 0.2,-33.2 0,-49.8 z"
   id="path188" />
		<path
   class="st8"
   d="m 2163.6,717.2 c 0.7,-1.7 1.5,-3.4 2.3,-5.1 -47.1,-32.2 -94.1,-64.4 -141.2,-96.5 -8.9,14.7 -15.9,30.6 -20.9,47 53.2,18.2 106.5,36.5 159.8,54.6 z"
   id="path190" />
		<path
   class="st8"
   d="m 1723.1,630.6 c 4.2,0 8.4,0 12.7,0 0,-2.8 0,-5.6 0.2,-8.4 2.1,0 4.1,0 6.2,-0.1 -6.4,-0.1 -12.8,0 -19.2,0 0,2.9 0.1,5.7 0.1,8.5 z"
   id="path192" />
		<path
   class="st8"
   d="m 1967.1,661.5 c 1,-1.7 1.4,-3.6 2,-5.4 1.3,-4.1 2.6,-8.2 3.8,-12.4 -1.5,0.3 -2.9,0.6 -4.4,1 v 0.2 c -0.3,5.5 -1.2,11 -1.4,16.6 z"
   id="path194" />
		<path
   class="st8"
   d="m 1995.1,678.2 c 0.8,-0.5 0.8,-1.7 1.1,-2.4 2.7,-9.5 5.7,-18.9 8.6,-28.3 -10,2.2 -20,4.5 -29.9,6.7 6.5,8.2 13.4,16.1 20.2,24 z"
   id="path196" />
		<path
   class="st8"
   d="m 2273.4,654.5 c -18.3,17.6 -36.7,35.1 -54.8,52.9 0.5,1.7 2,3 2.8,4.6 17.3,-9.4 34.6,-19 51.9,-28.3 v -0.1 c -0.1,-9.7 0.2,-19.4 0.1,-29.1 z"
   id="path198" />
		<path
   class="st8"
   d="m 2388.5,682.5 c -1.6,-9.2 -4.2,-18.2 -7.3,-27 -6.3,6.8 -12.2,13.9 -18.3,20.8 -4.2,4.9 -8.5,9.7 -12.5,14.7 1,-0.1 2.1,-0.3 3.1,-0.5 11.7,-2.6 23.3,-5.3 35,-8 z"
   id="path200" />
		<path
   class="st8"
   d="m 2161.6,725.8 c 0.3,-1.8 0.6,-3.5 1,-5.3 -53.3,-18.2 -106.5,-36.5 -159.8,-54.7 -4.9,16.5 -7.9,33.6 -8.7,50.8 55.9,3 111.7,6 167.5,9.2 z"
   id="path202" />
		<path
   class="st8"
   d="m 2395.5,699.2 c 1.3,-1.2 2.6,-2.3 3.9,-3.5 l -0.1,-0.1 c -3.5,-6.8 -5.6,-14.2 -8.7,-21.2 0.1,2.6 0.8,5 1.3,7.6 1.3,5.6 2.4,11.4 3.6,17.2 z"
   id="path204" />
		<path
   class="st8"
   d="m 2389.2,685.7 c -14.7,3.5 -29.5,6.7 -44.2,10.3 h 0.9 c -2.8,4.1 -6.1,7.9 -8.8,12 -5.6,7.9 -9.7,17 -10.7,26.7 22.3,1.2 44.6,2.5 66.9,3.7 0.7,-17.6 -0.4,-35.4 -4.1,-52.7 z"
   id="path206" />
		<path
   class="st8"
   d="m 2273.1,687.6 c -16.9,8.9 -33.5,18.3 -50.3,27.4 0.7,1.7 0.9,3.8 2.1,5.2 16.4,-3.6 32.8,-7.5 49.2,-11.3 -0.3,0 -0.8,0 -1.1,-0.1 -0.1,-7.1 0.2,-14.1 0.1,-21.2 z"
   id="path208" />
		<path
   class="st8"
   d="m 2395.5,704.1 c 0.6,5.1 0.9,10.2 1.2,15.4 6.6,4.5 13.2,9.1 19.9,13.6 -1.7,-5.2 -4.3,-10 -6.6,-15 -3.1,-6.4 -6.2,-12.8 -9.3,-19.1 -1.8,1.6 -3.5,3.3 -5.2,5.1 z"
   id="path210" />
		<path
   class="st8"
   d="m 1965.2,717.3 c 7.4,5.2 14.9,10.3 22.3,15.5 0.7,0.4 1.4,1.2 2.3,1 0.3,-2.6 0.3,-5.1 0.4,-7.7 0.2,-8.1 0.9,-16.3 1.3,-24.4 -8.9,4.7 -17.7,9.5 -26.6,14.3 -1,0.2 -0.1,1.1 0.3,1.3 z"
   id="path212" />
		<path
   class="st8"
   d="m 592.1,703.1 c -0.1,33.6 -0.2,67.3 -0.2,100.9 -9.6,0.2 -19.3,0.3 -28.9,0.4 0,11.8 -0.1,23.6 0,35.3 14.9,0 29.9,0 44.9,0 0.1,-45.6 0,-91.1 0,-136.7 -5.3,0 -10.5,-0.1 -15.8,0.1 z"
   id="path214" />
		<path
   class="st8"
   d="m 1958.7,725.6 c 0.3,-6.3 0.8,-12.6 0.9,-18.9 -2.4,1.3 -4.8,2.5 -7.1,3.9 1.4,1.3 3.1,2.4 4,4.2 0.2,2.9 -0.5,5.7 -0.7,8.6 0.9,0.8 1.9,1.5 2.9,2.2 z"
   id="path216" />
		<path
   class="st8"
   d="m 2225.3,723.6 c 0.2,1.8 0.4,3.7 0.3,5.6 15.7,1 31.5,1.8 47.2,2.7 0,-6.4 0.1,-12.8 0.1,-19.2 -15.9,3.5 -31.8,7.1 -47.6,10.9 z"
   id="path218" />
		<path
   class="st8"
   d="m 2030.7,764.8 c 2.5,-3.5 4.3,-7.4 6.5,-11 5.1,-8.9 10.3,-17.7 15.4,-26.6 5.6,9.6 11.1,19.2 16.7,28.9 30.9,-7.1 61.8,-14.3 92.7,-21.3 -0.2,-1.9 -0.4,-3.8 -0.5,-5.7 -55.8,-3 -111.6,-6.1 -167.4,-9.2 -1,17.6 0.5,35.4 4,52.6 8.4,-1.9 16.8,-3.9 25.2,-5.8 2.4,-0.6 5,-0.7 7.4,-1.9 z"
   id="path220" />
		<path
   class="st8"
   d="m 2395.9,756.5 c 8.2,-4.4 16.4,-8.9 24.6,-13.4 -0.3,-1.3 -0.6,-2.6 -0.8,-3.9 V 739 c -7.5,-4.9 -14.8,-10.1 -22.2,-15.1 -0.6,10.9 -1,21.8 -1.6,32.6 z"
   id="path222" />
		<path
   class="st8"
   d="m 2599.6,913 c 0.3,-61.8 0.6,-123.6 0.7,-185.4 -27.7,-0.1 -55.3,0.2 -83,0.2 -8.2,0 -16.4,-0.1 -24.6,0.1 -3.2,13 -3,26.6 -2.8,39.9 0.3,14.1 1.2,28.1 1.6,42.2 0.2,13.2 0.7,26.6 -2.3,39.6 -8.5,0 -17.1,-0.3 -25.6,-0.5 -0.4,-10.9 0,-21.8 -0.7,-32.6 -1.4,7.5 -1.5,15.1 -2.5,22.6 -6,0.9 -11.9,1.9 -17.9,2.9 -1.9,0.4 -3.9,0.2 -5.7,-0.3 -6,-1.6 -12,-3 -17.9,-4.6 -0.2,-6.7 0.1,-13.3 -0.4,-19.9 -3,0.7 -6,1.4 -8.9,2.1 1.1,-4 2.3,-7.9 3.5,-11.8 -11,2.6 -22,5 -32.9,7.7 -1.7,4.3 -3.7,8.6 -5.7,12.8 5.1,10.5 10.2,21 15.4,31.5 2.2,-3.3 4.2,-6.9 6.3,-10.3 3.8,7.2 7.1,14.7 10.9,21.9 1.4,-0.6 2.9,-1.3 4.5,-1.4 1.7,-0.1 3.3,0.6 5,1.1 3.7,0.4 7.6,-0.1 11.3,0.8 2.1,1.4 3.8,3.4 5.6,5.2 1.1,1 0.6,2.6 0.6,3.9 -0.8,7.7 -1.4,15.4 -2.2,23.1 -5.6,1 -11.3,1.8 -16.8,2.8 -2,0.4 -4.2,0.6 -6.2,0 -6.1,-1.6 -12.3,-3.2 -18.5,-4.7 -0.3,-8.7 0,-17.5 -0.4,-26.2 -3.1,-0.1 -6.2,-0.3 -9.3,-0.4 2,-3.5 4.3,-6.9 6.2,-10.5 -9,-0.4 -18.1,-0.8 -27.1,-1.3 -2.2,-0.1 -4.4,-0.5 -6.5,-0.1 -3.2,3.8 -6.1,7.9 -9.4,11.6 2.4,11.6 4.7,23.2 7.1,34.7 3,-2.7 5.7,-5.6 8.7,-8.3 1.7,8.1 3.3,16.2 5,24.3 2.7,-0.7 5.3,-0.1 7.9,0.8 3.6,0.4 7.4,-0.2 11,0.7 2.4,1.6 4.2,4 6.4,6 -0.8,8.7 -1.5,17.5 -2.5,26.2 -5.5,0.9 -11,1.7 -16.5,2.7 -2.2,0.4 -4.5,0.7 -6.7,0 -6.1,-1.7 -12.2,-3.1 -18.3,-4.7 -0.2,-6.8 -0.1,-13.6 -0.2,-20.5 0,-2 -0.3,-4 0.3,-5.9 1.5,-1.7 3.4,-2.9 5,-4.5 -4.3,-1.4 -8.5,-2.9 -12.8,-4.3 2.8,-2.9 5.8,-5.6 8.6,-8.4 -10.7,-3.7 -21.4,-7.3 -32.1,-10.9 -3.6,2.8 -7.4,5.6 -11.2,8.2 -0.5,11.9 -1,23.8 -1.5,35.6 3.5,-1.8 6.9,-3.8 10.4,-5.6 -0.3,8.3 -0.7,16.6 -1.1,24.8 1.8,0.2 3.7,0.6 5.5,1.3 3.7,0.5 7.6,-0.1 11.3,0.7 2.5,1.6 4.3,4 6.5,6.1 -0.3,5 -1.3,10 -1.1,15.1 3.7,-1.3 7.1,-3.6 11,-3.8 72.2,0.5 144.3,1 216.5,1.5 0.1,42.5 0.2,85 0.2,127.5 12.6,-0.3 25.2,-0.2 37.8,-0.9 -0.3,-11.6 0,-23.1 0,-34.7 0,-55.3 0.5,-110.5 0.5,-165.7 z"
   id="path224" />
		<path
   class="st8"
   d="m 1068.7,1036.1 c -0.1,-102.1 -0.1,-204.2 -0.2,-306.3 -16,0 -32.1,0 -48.1,0 0.1,102.1 0.1,204.3 0.2,306.4 16,-0.1 32,0 48.1,-0.1 z"
   id="path226" />
		<path
   class="st8"
   d="m 2272.9,754.6 c -0.1,-6.5 -0.1,-13 -0.1,-19.5 -15.7,-0.9 -31.5,-1.8 -47.2,-2.6 -0.3,1.9 -0.7,3.7 -1,5.6 16.1,5.5 32.2,11.1 48.3,16.5 z"
   id="path228" />
		<path
   class="st8"
   d="m 2325.7,754.8 c 0.2,6 0.2,12.1 0.5,18.1 19.4,6.6 38.7,13.3 58,19.8 5,-16.5 8.1,-33.7 8.7,-51 -22.4,-1.3 -44.9,-2.4 -67.3,-3.7 0.4,5.6 -0.1,11.2 0.1,16.8 z"
   id="path230" />
		<path
   class="st8"
   d="m 2078.7,766.8 c 0,7.8 -0.1,15.7 0,23.5 28.5,-15.7 57,-31.3 85.6,-46.9 -0.6,-1.8 -1.1,-3.5 -1.7,-5.3 -27.2,6.1 -54.3,12.5 -81.5,18.7 -3.4,0.9 -6.8,1.3 -10,2.6 1.4,2.4 2.9,4.9 4.3,7.3 1,0 2.2,0 3.3,0.1 z"
   id="path232" />
		<path
   class="st8"
   d="m 2221.5,746 c 9.1,6.4 18.3,12.5 27.4,18.8 8.1,5.5 16.1,11.2 24.3,16.5 0,-7.7 -0.3,-15.4 -0.3,-23.1 -16.4,-5.6 -32.9,-11.3 -49.3,-16.9 -0.6,1.6 -1.4,3.1 -2.1,4.7 z"
   id="path234" />
		<path
   class="st8"
   d="m 2168.7,750.7 c -1,-1.5 -2,-2.9 -2.9,-4.4 -29.1,15.8 -58,31.9 -87.1,47.6 -0.1,14.5 -0.2,28.9 0,43.4 30,-28.8 60,-57.8 90,-86.6 z"
   id="path236" />
		<path
   class="st8"
   d="m 2392.8,772.3 c -0.2,1.4 -0.8,3 0.4,4.2 7.2,8.4 14.4,16.8 21.6,25.1 1.2,-3.9 2.3,-7.9 3.6,-11.7 3.8,4.2 7.4,8.6 11.1,12.9 -0.1,-11.9 -1,-23.8 -2.9,-35.6 -0.6,-3.5 -1.4,-7 -1.9,-10.5 l -0.5,0.3 c 0.2,-2.1 0.2,-4.1 0.3,-6.2 -0.2,0.9 -0.5,1.7 -0.7,2.6 -0.7,-2.4 -1.3,-4.7 -2,-7 -9,4.9 -18,9.8 -26.9,14.8 -0.8,3.6 -1.3,7.4 -2.1,11.1 z"
   id="path238" />
		<path
   class="st8"
   d="m 2219.2,748.8 c -0.2,2.8 1,5.5 1.6,8.2 0.4,2.2 1.9,3.8 3.3,5.4 16.1,18.9 32,37.8 48.1,56.6 0.3,-11.2 0.7,-22.3 1,-33.5 v -0.2 c -14.1,-9.5 -28.1,-19.2 -42.2,-28.8 -3.9,-2.4 -7.6,-5.4 -11.8,-7.7 z"
   id="path240" />
		<path
   class="st8"
   d="m 2084.3,907 c 22.8,-37.7 45.5,-75.5 68.3,-113.2 4,-6.8 8.3,-13.5 12.2,-20.4 2.5,-6.4 4.5,-13.1 6.8,-19.6 -0.2,-0.1 -0.6,-0.3 -0.9,-0.4 -16.3,15.8 -32.7,31.5 -49.1,47.3 -14.3,13.7 -28.5,27.6 -42.9,41.2 0.1,20.5 0.2,41.1 0.4,61.6 1.7,1.1 3.5,2.3 5.2,3.5 z"
   id="path242" />
		<path
   class="st8"
   d="m 1969,780.8 c 9.7,3.4 19.5,6.7 29.2,10.1 -2.2,-10.6 -4.4,-21.3 -6.4,-32 -7.6,7.3 -15.2,14.6 -22.8,21.9 z"
   id="path244" />
		<path
   class="st8"
   d="m 2194.7,763.2 c -1.6,4.5 -1.4,9.4 -1.7,14.1 -2.6,54.8 -5.3,109.5 -7.8,164.3 16.5,0.7 33.2,-0.5 49.3,-4.4 -6.7,-32.3 -12.9,-64.6 -20.3,-96.7 -5.8,-25.8 -11.7,-51.5 -17.4,-77.3 -0.8,0 -1.5,0 -2.1,0 z"
   id="path246" />
		<path
   class="st8"
   d="m 2223.5,766.7 c 3.7,14.1 7.5,28.1 11.2,42.2 1.2,5 4,9.4 6.1,14.1 15.2,31.5 30.4,62.9 45.6,94.4 14.6,-7.8 28,-17.9 40,-29.4 -11.8,-14.1 -23.8,-28.1 -35.7,-42.1 -0.3,1.3 -0.6,2.6 -0.9,3.9 -4.1,-0.1 -8.2,0.3 -12.3,-0.1 -1.3,-1 -1.8,-2.8 -2.4,-4.3 -2.2,-6.8 -2.5,-14 -2.7,-21 -16.2,-19.2 -32.6,-38.4 -48.9,-57.7 z"
   id="path248" />
		<path
   class="st8"
   d="m 2022.9,770.2 c -8.1,1.9 -16.2,3.7 -24.3,5.6 3.4,17 9,33.5 16.5,49.2 2.4,-1.2 4.7,-2.5 7.1,-3.8 0.3,-17 0.6,-34 0.7,-51 z"
   id="path250" />
		<path
   class="st8"
   d="m 1965.9,791.2 c -1,-6.2 -2.4,-12.4 -3.6,-18.5 -2.8,2.6 -5.4,5.2 -8.2,7.8 3.4,1.4 5.6,4.4 8.1,6.9 -0.1,0.8 -0.2,1.6 -0.2,2.4 1.3,0.5 2.6,0.9 3.9,1.4 z"
   id="path252" />
		<path
   class="st8"
   d="m 2362.6,842.5 c 8.9,-14.5 15.9,-30.3 20.8,-46.6 -19,-6.5 -37.9,-13.1 -57,-19.4 0.2,10.4 0.5,20.8 0.3,31.2 -4.9,0 -9.7,-0.2 -14.5,0.2 6.8,5.1 14.1,9.7 21.1,14.6 9.7,6.7 19.5,13.3 29.3,20 z"
   id="path254" />
		<path
   class="st8"
   d="m 2388.8,790.1 c -2,7 -4.3,13.9 -6.4,20.9 10,-2.3 20,-4.5 29.9,-7.1 -6.8,-8 -13.7,-16.1 -20.6,-24 -1.1,3.4 -2,6.8 -2.9,10.2 z"
   id="path256" />
		<path
   class="st8"
   d="m 2181.8,941.3 c 2.6,-53 5.1,-106 7.6,-159 -13.8,51.3 -27.8,102.5 -41.7,153.8 11.2,2.9 22.6,4.8 34.1,5.2 z"
   id="path258" />
		<path
   class="st8"
   d="m 2148.8,820.9 c 3.5,-10.5 7.3,-20.9 10.6,-31.5 -0.5,0.6 -0.9,1.2 -1.4,1.9 -23.6,39.2 -47.3,78.4 -70.9,117.7 8.4,5.8 17.3,10.9 26.6,15.1 11.7,-34.4 23.3,-68.8 35.1,-103.2 z"
   id="path260" />
		<path
   class="st8"
   d="m 2414.4,814.6 c 1.4,-0.3 2.8,-0.6 4.2,-1 0.2,-1.2 -0.2,-2.7 0.9,-3.5 2.2,-2 4.6,-4.1 7.4,-5.3 -2.5,-2.6 -4.5,-5.6 -7.2,-8 -1.8,5.9 -3.6,11.9 -5.3,17.8 z"
   id="path262" />
		<path
   class="st8"
   d="m 2328.8,885.6 c 5,-4.6 9.6,-9.6 14,-14.8 6.7,-8 12.8,-16.4 18.1,-25.4 -18.4,-12.7 -37,-25.2 -55.3,-37.9 h -0.2 c -4,0.2 -8.1,0 -12.1,0.1 -0.4,7 0.3,14 0.2,21 -0.5,4.3 -1.1,8.6 -2.3,12.7 12.5,14.8 25.1,29.5 37.6,44.3 z"
   id="path264" />
		<path
   class="st8"
   d="m 2462.9,812.6 c 0,-1.7 0,-3.4 0,-5.1 -1.8,0 -3.6,0 -5.3,0.1 1.6,1.8 3.3,3.5 5.3,5 z"
   id="path266" />
		<path
   class="st8"
   d="m 2007.8,829.8 c 1.9,0 3.9,0 5.9,0 -2.7,-5.3 -4.9,-10.9 -7.8,-16.1 -4.8,7.8 -9.5,15.7 -14.4,23.5 -0.1,1.3 -0.1,2.6 0,4 5.4,0.2 10.8,0.6 16.3,0.9 0.1,-3.9 0,-7.9 0.1,-11.8 z"
   id="path268" />
		<path
   class="st8"
   d="m 2022.1,830 c 0.1,-1.7 0.1,-3.3 0.2,-5 -1.9,1 -3.7,2 -5.5,3 0.2,0.6 0.5,1.3 0.7,1.9 1.5,0 3,0 4.6,0.1 z"
   id="path270" />
		<path
   class="st8"
   d="m 2240.5,830.1 c 1.8,8 4.2,15.8 6.2,23.8 6.5,24.5 13,48.9 19.6,73.4 5.9,-2.3 11.7,-5.2 17.3,-8.3 -14.5,-29.6 -28.6,-59.3 -43.1,-88.9 z"
   id="path272" />
		<path
   class="st8"
   d="m 2386.9,861.1 c -4.5,-9.7 -9.4,-19.2 -14,-28.8 -2.6,3.5 -4.4,7.5 -6.7,11.2 -3.2,5.5 -6.8,10.7 -9.8,16.3 10.1,0.4 20.3,0.9 30.5,1.3 z"
   id="path274" />
		<path
   class="st8"
   d="m 1979,844.1 c 0,-2 0,-3.9 0,-5.9 -1.3,1.9 -2.5,3.8 -3.6,5.9 1.2,-0.1 2.4,-0.1 3.6,0 z"
   id="path276" />
		<path
   class="st8"
   d="m 2389.5,872.1 c 1.3,0 2.7,0.1 4,-0.2 1.2,-0.5 2.2,-1.5 3.5,-2 1.9,-0.3 3.8,-0.1 5.7,0 -2.1,-4.7 -4.5,-9.2 -6.7,-13.8 -3.5,5.1 -6.4,10.6 -9.7,15.8 1,0.1 2.1,0.1 3.2,0.2 z"
   id="path278" />
		<path
   class="st8"
   d="m 2331.9,887.6 c -4.4,4.4 -9.1,8.4 -13.5,12.9 9.8,3.2 19.5,6.7 29.2,9.8 -2.2,-10.6 -4.3,-21.2 -6.5,-31.8 -3.2,2.9 -6.1,6.1 -9.2,9.1 z"
   id="path280" />
		<path
   class="st8"
   d="m 2096.8,919.8 c -5.8,-4.1 -11.9,-7.9 -17.7,-12 0,7.2 0.1,14.4 0.1,21.6 5.9,-3.3 11.8,-6.4 17.6,-9.6 z"
   id="path282" />
		<path
   class="st8"
   d="m 2361.3,926 c -1.2,-6 -2.5,-12 -3.7,-18 -4.6,4.1 -8.9,8.4 -13.2,12.7 5.7,1.6 11.1,4 16.9,5.3 z"
   id="path284" />
		<path
   class="st8"
   d="m 2272.8,928.9 c 8.6,5.9 17.2,11.8 25.9,17.5 0.4,-10.9 1,-21.7 1.4,-32.6 -4.6,2.5 -9,5.1 -13.6,7.6 -4.6,2.5 -9.2,4.9 -13.7,7.5 z"
   id="path286" />
		<path
   class="st8"
   d="m 2099.4,965.9 c 4.4,-12.9 8.8,-25.7 13.1,-38.6 -3.2,-1.5 -6.4,-3.1 -9.5,-4.8 -1,-0.4 -2.1,-1.3 -3.1,-0.5 -6.9,3.7 -13.6,7.5 -20.5,11.1 0,3.4 0,6.9 0,10.3 0.2,0.2 0.5,0.6 0.7,0.9 -1,2.3 -0.6,4.7 -0.6,7.1 0.2,18.9 0.3,37.8 0.4,56.7 1.7,0 3.5,0 5.2,0.1 3.6,-11.5 8.1,-22.8 11.4,-34.4 -0.1,-2.6 -0.1,-5.2 -0.1,-7.7 1,-0.2 2,-0.2 3,-0.2 z"
   id="path288" />
		<path
   class="st8"
   d="m 2303.1,1001.3 c -4.1,-1.4 -8.4,-2.2 -12.6,-3.4 -0.1,-8.8 -0.2,-17.5 -0.2,-26.3 1.8,-1.5 3.5,-3 5.3,-4.4 2,-1.8 4.9,-0.9 7.4,-1 -5.5,-3.7 -11,-7.3 -16.3,-11.2 3.4,-1.9 6.8,-3.8 10.3,-5.7 -9.4,-6.5 -19,-13 -28.5,-19.4 -0.3,0.1 -1,0.4 -1.4,0.5 6.8,25.7 13.6,51.4 20.6,77 5.2,-1.7 10.3,-4 15.4,-6.1 z"
   id="path290" />
		<path
   class="st8"
   d="m 2176.8,993.5 c -3.1,-6.4 -6.2,-12.7 -9.3,-19.2 3.9,0.2 7.7,0.4 11.6,0.5 -5.1,-10.7 -10.3,-21.3 -15.5,-32 -4.4,-0.8 -8.7,-1.6 -13,-2.6 -2.3,2.3 -5.5,4.2 -6.1,7.6 -3.5,13.4 -7.3,26.8 -10.8,40.2 1.1,1.2 3.1,2.2 3,4.1 l 0.1,1.1 c 4.8,0 9.6,0 14.5,0 0,4.9 0,9.8 0,14.7 2.5,-0.1 5,-0.1 7.5,-0.2 0,-2 0,-3.9 0,-5.9 2.4,-2.1 4.8,-4.1 7.5,-5.9 0,-0.9 0,-1.8 0,-2.6 3.3,0.2 6.9,0.2 10.5,0.2 z"
   id="path292" />
		<path
   class="st8"
   d="m 2240.1,955.2 c -1.2,-4.9 -2.3,-9.8 -3.3,-14.7 -5,1 -10,2.2 -15,3.4 3.1,3.7 6.4,7.3 9.4,11 2.9,0.2 5.9,0.1 8.9,0.3 z"
   id="path294" />
		<path
   class="st8"
   d="m 2182,973.1 c 5.7,-9 11.1,-18.3 16.7,-27.4 -10.2,-0.5 -20.4,-0.9 -30.7,-1.6 4.6,9.7 9.4,19.3 14,29 z"
   id="path296" />
		<path
   class="st8"
   d="m 2210.5,1008 c 4.1,0 8.2,0 12.3,0 0.1,-17.6 0.1,-35.3 0.1,-52.9 1.3,0 2.7,0 4.1,-0.1 -3.2,-3.8 -6.5,-7.6 -9.7,-11.3 -4.7,0.5 -9.5,0.9 -14.2,1.2 -6,10.1 -12.3,20 -18.1,30.2 3.8,0.2 7.7,0.4 11.5,0.6 -4.2,7.1 -8.5,14 -12.7,21.1 3.7,1.1 7.7,0.6 11.6,0.9 0,-1.5 0,-3 0,-4.4 5.1,0 10.1,0 15.2,0 -0.1,4.9 -0.1,9.8 -0.1,14.7 z"
   id="path298" />
		<path
   class="st8"
   d="m 2308.8,946.8 c -5.3,2.8 -10.6,5.6 -15.7,8.7 5,3.3 9.9,6.8 14.9,10 0.3,-6.2 0.5,-12.5 0.8,-18.7 z"
   id="path300" />
		<path
   class="st8"
   d="m 2181.3,994.3 c 3.1,-5.2 6.3,-10.3 9.4,-15.5 -5.9,-0.3 -11.9,-0.7 -17.8,-0.8 2.7,5.1 4.8,10.5 7.8,15.5 0.2,0.2 0.5,0.6 0.6,0.8 z"
   id="path302" />
		<path
   class="st8"
   d="m 2505.5,1114.2 c -471.7,0.2 -943.5,0.5 -1415.2,0.7 -222.1,0.1 -444.1,0.2 -666.2,0.3 -6.1,0.1 -12.2,-0.3 -18.3,0.3 234.8,0.8 469.5,1.1 704.3,1.2 2.2,-0.4 4.5,-0.5 6.8,-0.4 30.3,0.1 60.6,0 90.9,0.1 12.3,-0.3 24.6,0 37,-0.1 43.9,0 87.8,0.1 131.8,0.1 59.6,-0.1 119.2,-0.2 178.8,0 22.1,0 44.2,0 66.2,-0.1 14.3,0.1 28.5,-0.2 42.8,0.1 34.7,-0.2 69.4,-0.1 104.2,-0.1 5.6,0.1 11.3,-0.3 16.9,0.3 120.1,-0.1 240.3,-0.3 360.4,-0.6 133.7,-0.3 267.5,-0.7 401.2,-1.7 -14,-0.3 -27.8,0 -41.6,-0.1 z"
   id="path304" />
	</g>
	<path
   class="st9"
   d="m 1110,1116.7 c 2.2,-0.4 4.5,-0.5 6.8,-0.4 30.3,0.1 60.6,0 90.9,0.1 l 1,0.4 H 1111 Z"
   id="path308" />
	<path
   class="st10"
   d="m 1207.7,1116.5 c 12.3,-0.3 24.6,0 37,-0.1 43.9,0 87.8,0.1 131.8,0.1 59.6,-0.1 119.2,-0.2 178.8,0 l 0.7,0.5 h -347.1 z"
   id="path310" />
	<path
   class="st11"
   d="m 1555.1,1116.4 c 22.1,0 44.2,0 66.2,-0.1 14.3,0.1 28.5,-0.2 42.8,0.1 l -1,0.4 h -107.4 z"
   id="path312" />
	<path
   class="st12"
   d="m 1664.2,1116.5 c 34.7,-0.2 69.4,-0.1 104.2,-0.1 5.6,0.1 11.3,-0.3 16.9,0.3 l -1,0.3 h -121.1 z"
   id="path314" />
	<path
   class="st6"
   d="m 2600.1,986.6 c -72.2,-0.6 -183.4,-1 -255.6,-1.5 -4,0.2 -7.4,2.6 -11,3.8 -10.1,4.1 -20.2,8.3 -30.3,12.4 -5.2,2 -10.2,4.3 -15.4,6.3 -7.4,0.2 -14.7,0 -22.1,0 -0.5,-3.9 -0.4,-7.9 -0.4,-11.8 -0.1,-13.5 -0.6,-27 -0.7,-40.5 -8.1,-0.3 -16.2,0.1 -24.3,-0.1 -3,-0.2 -6,0 -9,-0.3 -1.4,0 -2.8,0.1 -4.1,0.1 -1.4,0 -2.7,0 -4.1,0.1 0,17.6 0,35.3 -0.1,52.9 -4.1,0 -8.2,0 -12.3,0 0,-4.9 0,-9.8 0,-14.7 -5.1,0 -10.1,0 -15.2,0 0,1.5 0,2.9 0,4.4 0,3.4 0.1,6.9 -0.1,10.3 -3,-0.1 -6,0 -8.9,0 -1.7,0 -3.3,0 -4.9,-0.1 -0.3,-4.6 -0.2,-9.1 -0.1,-13.7 -0.2,-0.2 -0.5,-0.6 -0.6,-0.9 -1.3,0 -2.7,0 -4,0 -3.6,0 -7.1,0 -10.7,0 0,0.9 0,1.7 0,2.6 0,4 0.1,7.9 -0.1,11.9 -5,-0.1 -9.9,0.3 -14.9,0 0,-4.9 0,-9.8 0,-14.7 -4.8,0 -9.6,0 -14.5,0 l -0.1,-1.1 c -1.7,5.2 -0.3,10.6 -0.5,15.9 h -0.4 c -2.3,0.1 -4.6,0.3 -6.9,0.3 -14.5,-0.5 -29.1,-0.1 -43.7,-0.2 -1.8,0 -3.5,-0.1 -5.2,-0.1 -0.2,-18.9 -0.3,-37.8 -0.4,-56.7 0,-2.4 -0.3,-4.9 0.6,-7.1 -0.2,-0.2 -0.5,-0.6 -0.7,-0.9 0,-3.4 -0.1,-6.9 0,-10.3 0,-1.3 0,-2.5 0,-3.7 -0.1,-7.2 -0.1,-14.4 -0.1,-21.6 0,-1.5 0,-2.9 0,-4.4 -0.2,-20.5 -0.4,-41.1 -0.4,-61.6 0,-1.5 -0.1,-3 -0.1,-4.5 -0.2,-14.5 -0.1,-28.9 0,-43.4 0,-1.2 0,-2.5 0,-3.7 -0.1,-7.8 0,-15.7 0,-23.5 -1.1,0 -2.3,0 -3.4,0 -1.4,-2.5 -2.8,-4.9 -4.3,-7.3 -0.7,-1.1 -1.3,-2.2 -1.9,-3.3 -5.6,-9.6 -11.1,-19.3 -16.7,-28.9 -5.1,8.9 -10.2,17.7 -15.4,26.6 -2.2,3.6 -4,7.5 -6.5,11 -2.3,1.2 -5,1.3 -7.5,1.9 -0.1,1.1 -0.2,2.3 -0.3,3.5 -0.1,17 -0.5,34 -0.7,51 0,1.3 0,2.5 0,3.8 0,1.7 -0.1,3.3 -0.2,5 -1.6,-0.1 -3.1,-0.1 -4.6,-0.1 -3.2,0.1 -6.5,0.4 -9.7,0.4 -0.1,3.9 0,7.8 -0.1,11.8 0,0.5 0,1.4 -0.1,1.8 -5.4,0.2 -10.8,0.2 -16.1,0 -0.1,-0.9 -0.1,-1.8 -0.1,-2.7 0,-1.3 0,-2.6 0,-4 0,-2.1 0,-4.2 0,-6.3 -0.1,-0.3 -0.2,-0.8 -0.2,-1 -3,-0.1 -6,0 -9,0 -0.3,-0.5 -0.7,-1 -1,-1.5 -0.8,0.6 -1.5,1.2 -2.2,1.8 0,0.4 -0.1,1.1 -0.2,1.5 0,2.1 0.1,4.3 0.1,6.4 0,1.9 0,3.9 0,5.9 -1.2,0 -2.4,0 -3.5,0 -1.3,0 -2.7,0 -3.9,0 -2.7,0.1 -5.4,0.1 -8.1,0 0.1,-4.7 0,-9.4 0.1,-14 -4.2,-0.1 -8.3,0 -12.5,-0.1 0,4.7 0,9.4 0,14.1 -5.2,0 -10.4,0 -15.6,0 0,-4.7 0,-9.4 0,-14.1 -4.2,0 -8.3,0 -12.5,0 0,4.7 0,9.4 0,14.1 -5.2,0 -10.4,0 -15.6,0 0,-4.7 0,-9.4 0,-14.1 -4.1,0 -8.3,0 -12.4,0 -0.2,4.7 0,9.5 -0.1,14.2 -5.2,0 -10.4,0 -15.5,0 0,-4.7 0,-9.4 0,-14.2 -4.1,0 -8.3,0 -12.4,0 -0.1,4.7 0,9.4 0,14.2 -5.2,0 -10.4,0.1 -15.6,0 0,-4.7 0.1,-9.4 0,-14.1 -4.1,0 -8.3,0 -12.4,0 0,4.7 0,9.4 0,14.2 -5.2,0 -10.3,0 -15.5,0 0,-4.7 0,-9.4 0,-14.1 -3.4,0 -6.7,0 -10.1,0 -0.2,-21 -0.4,-42.1 -0.6,-63.1 -1.1,0 -2.2,0 -3.3,0 -7.7,-13.1 -15.2,-26.3 -22.8,-39.5 -7.6,13.1 -15.2,26.3 -22.8,39.4 -1.6,0 -3.2,0 -4.8,0.1 0,60.2 0,120.4 0,180.6 -5.6,0 -11.2,0 -16.7,0 0,-65.1 0,-130.3 0,-195.4 0,-40.4 0,-80.9 0,-121.3 -2.1,0 -4.3,0 -6.4,0 -4.2,0 -8.4,0 -12.7,0 -0.1,-2.8 -0.1,-5.7 -0.1,-8.5 6.4,0 12.8,-0.1 19.2,0 0,-27.8 0,-55.6 0,-83.4 -2.1,0 -4.3,0 -6.4,0 -30.1,0 -60.2,0 -90.3,0 -0.2,27.9 0,55.8 -0.1,83.7 6.5,0 12.9,0 19.4,0 0,2.5 0.1,5 0.1,7.4 -6.5,0 -13,0 -19.5,0 0,135.4 0,270.9 0,406.3 -5,0 -10,0 -15.1,0 -0.1,-90.8 0,-181.6 0,-272.4 0.1,-58.1 -0.2,-116.2 0.2,-174.3 -39.3,17 -78.6,34 -117.9,51 0,130.8 0,261.6 0,392.4 -7.5,-8 -14.6,-16.4 -22.2,-24.4 -3.3,-0.6 -6.7,-0.1 -10.1,-0.2 0,-4 0,-8.1 0,-12.1 3.7,-0.1 7.4,0 11.2,-0.1 0,-6 0,-11.9 0,-17.9 -3.7,0 -7.4,0 -11.1,0 -0.1,-4.1 0,-8.1 0,-12.2 3.7,0 7.4,0 11.1,0 0,-5.9 0,-11.9 0,-17.8 -3.7,-0.1 -7.5,0 -11.2,-0.1 0,-4 0,-8.1 0,-12.1 3.7,0 7.4,0 11.1,0 0.1,-6 0,-11.9 0,-17.9 -3.7,0 -7.4,0 -11.1,0 0,-4.4 0,-8.8 -0.1,-13.2 3.7,-0.1 7.4,-0.1 11.2,-0.1 0,-6 0,-11.9 0,-17.9 -3.7,0 -7.4,0 -11.1,0 -0.1,-4.3 -0.2,-8.6 0,-13 3.6,-0.5 7.4,-0.1 11.1,-0.2 0,-6 0,-11.9 0,-17.9 -3.7,0 -7.5,0.1 -11.2,-0.1 0.2,-4.3 -0.3,-8.7 0.3,-13 3.6,-0.3 7.3,0 10.9,-0.1 0,-6 0,-11.9 0,-17.9 -3.7,0 -7.4,0 -11.1,0 0,-4.4 0,-8.7 0,-13.1 3.7,0 7.4,0 11.1,0 0,-6 0,-11.9 0,-17.9 -3.7,-0.1 -7.4,0 -11.2,-0.1 0,-4.4 0,-8.7 0,-13.1 3.7,0 7.4,0 11.1,0 0,-5.9 0,-11.9 0,-17.8 -3.7,-0.1 -7.5,0 -11.2,-0.1 0,-4.4 0,-8.8 0,-13.1 3.7,0 7.4,0 11.1,0 0,-6 0,-11.9 0,-17.9 -3.7,0 -7.4,0 -11.1,0 0,-4.4 0,-8.7 0,-13.1 3.7,0 7.4,0 11.1,0 0,-6 0,-11.9 0,-17.9 -3.7,0 -7.4,0 -11.1,0 0,-4.4 0,-8.8 0,-13.1 3.7,0 7.4,0 11.1,0 0,-6 0,-11.9 0,-17.9 -3.7,0 -7.4,0 -11.1,0 0,-4.4 0,-8.7 0,-13.1 3.7,0 7.4,0 11.1,0 0.1,-6 0,-11.9 0,-17.9 -3.7,0 -7.4,0 -11.1,0 0,-4.4 0,-8.7 0,-13.1 3.7,0 7.4,0 11.2,-0.1 -0.1,-5.9 0,-11.9 0,-17.8 -3.7,0 -7.4,0 -11.1,0 0,-4.1 0,-8.2 0,-12.3 3.7,0 7.4,0 11.1,0 0,-5.9 0,-11.9 0,-17.8 -3.7,-0.1 -7.4,0 -11.2,0 0,-4.1 0,-8.2 0,-12.2 3.7,0 7.4,0 11.2,-0.1 -0.1,-5.9 0,-11.9 0,-17.8 -3.7,0 -7.4,0 -11.1,0 0,-4.1 0,-8.2 0,-12.3 3.7,0 7.4,0 11.1,0 0,-5.9 0,-11.9 0,-17.8 -3.7,-0.1 -7.5,0 -11.2,-0.1 0,-4.4 0,-8.9 0,-13.3 3.7,0 7.4,0 11.2,0 0,-6 0,-11.9 0,-17.9 -3.7,0 -7.4,0 -11.1,0 0,-4.2 0,-8.3 0,-12.5 3.7,0 7.4,0 11.2,0 0,-2.9 0,-5.8 0,-8.8 0,-3 0,-6 0,-9.1 -3.7,-0.1 -7.4,0 -11.2,0 0,-4.2 0,-8.4 0,-12.6 3.7,0 7.4,0 11.2,0 0,-6 0,-11.9 0,-17.9 -3.7,0 -7.5,0 -11.2,-0.1 0.1,-25.6 0,-51.2 0.1,-76.8 -4.2,0 -8.4,0 -12.6,0 0.1,14.9 0.1,29.8 0.2,44.7 -6,0 -12.1,0 -18.1,0 -0.1,-6.2 -0.2,-12.5 -0.2,-18.7 -7.5,0 -15,0 -22.5,0 0,6.2 0,12.5 0,18.7 -6.1,0 -12.2,0 -18.3,0 0.1,5.7 0.2,11.4 0.3,17.1 3.1,0 6.3,0 9.4,0 0,5 0,9.9 0,14.9 -4,0 -8,0 -12,0 0,6 0,11.9 0,17.9 4,0 8,0 12,0 0,4.2 0,8.4 0,12.6 -4,0 -8,0 -12.1,0.1 0,3.1 0,6.1 0,9.2 0,2.9 0,5.7 0,8.6 4,0 8,0 12,0 0,4.2 0,8.3 0,12.5 -4,0 -8,0 -12,0 0,5.9 0,11.9 0,17.8 4,0.1 8,0 12,0.1 V 517 c -4,0 -8,0 -12,0 -0.1,6 0,11.9 -0.1,17.9 4,0 8,0 12,0 0,4.1 0,8.2 0,12.3 -4,0 -8,0 -12,0 0,5.9 0,11.9 0,17.8 4,0.1 8,0 12,0 0,4.1 0,8.2 0,12.2 -4,0 -8,-0.1 -12.1,0.1 0.1,5.9 0,11.9 0,17.8 4,0 8,0 12,0 0,4.1 0,8.2 0,12.3 -4,0 -8,-0.1 -12.1,0.1 0.1,5.9 0,11.9 0,17.8 4,0 8,0 12,0 v 13.1 c -4,0 -8,0 -12,0 0,6 -0.1,11.9 0,17.9 4,0 8,0 12,0 0,4.4 0,8.7 0,13.1 -4,0 -8,0 -12,0 0,6 0,11.9 0,17.9 4,0 8,0 12,0 0,4.4 0,8.7 0,13.1 -4,0 -8,0 -12,0 0,6 0,11.9 0,17.9 4,0 8,0 12,0 0,4.4 0,8.7 0,13.1 -4,0 -8,0 -12,0 -0.1,6 0,11.9 0,17.9 4,0 8,0 12,0 v 13.1 c -4,0 -8,-0.1 -12.1,0.1 0.1,5.9 0,11.9 0,17.8 4,0 8,0 12,0 0,4.4 0,8.7 0,13.1 -4,0 -8,-0.1 -12,0.1 0.1,5.9 0,11.9 0,17.8 4,0 8,0 12,0 0,4.4 0,8.7 0,13.1 -4,0 -8,0 -12,0.1 0.1,5.9 0,11.9 0,17.8 4,0 8,0 12,0 0,4.4 0,8.8 0,13.1 -4,0 -8,0 -12,0 0,6 0,11.9 0,17.9 4,0 8,0 12,0 0,4.4 0,8.8 0,13.2 -4,0 -8,0 -12,0 0,6 0,11.9 0,17.9 4,0 8,0 12,0 0,4.4 0,8.8 0,13.2 -4,0 -8,0 -12,0 0,6 -0.1,11.9 0,17.9 4,0 8,0 12,0 v 12.1 c -4,0.2 -8,-0.4 -11.9,0.3 -0.2,5.9 0,11.8 -0.1,17.6 4,0 8,0 12,0 0,4 0,8.1 0,12.2 -4,0 -8,0 -12,0 0,6 0,11.9 0,17.9 4,0 8,0 12,0 0.1,4.1 0,8.1 0.1,12.2 -4,0 -8,0 -12,0 0,9.3 0,18.6 0,27.9 -4.6,0 -9.2,0 -13.8,0 -0.2,-52.3 0,-104.6 -0.1,-156.9 0,-118.2 0,-236.3 0,-354.5 -11.8,0 -23.6,0 -35.4,0 -6,0 -12.1,0 -18.1,0 -14.6,0 -29.1,0 -43.6,0 -0.1,17.3 -0.1,34.6 -0.2,51.9 -2.4,0 -4.7,0 -7,-0.1 0.1,-4.8 0,-9.6 0,-14.4 -7.4,0 -14.7,0.1 -22.1,0.1 0,4.7 0.2,9.4 0.2,14.1 -5.3,0 -10.6,0.1 -15.8,0.2 -0.1,134.6 0,269.3 -0.1,403.9 -40.1,0.7 -80.2,1.4 -120.3,2.1 0,17.8 0,35.6 0,53.5 -11,0 -22,0 -33,0 -0.6,-59.6 -0.3,-119.2 -0.1,-178.9 -0.2,-13.4 0,-26.7 0.1,-40.1 0,-19.1 0.1,-38.2 0.1,-57.3 0,-13.1 -0.3,-26.3 0.3,-39.4 0.1,-3.9 -0.5,-8 -2.7,-11.3 -2.4,-3.6 -4.5,-7.5 -7,-11.1 -1,-1.5 -2.5,-2.7 -4.4,-2.8 -2.7,-0.2 -5.5,-0.1 -8.2,0 1.5,-2.2 1.3,-5 1.8,-7.6 0.6,-3.3 0.9,-6.6 0.8,-9.9 2,-0.3 3.9,-1 5.8,-1.9 -0.3,-2.4 -0.4,-5.2 -2.4,-6.9 -1.2,-1.4 -3.3,-2.3 -3.4,-4.4 -0.7,-6.3 0.2,-12.8 -2.2,-18.8 -0.9,-2.7 -2.5,-5.1 -3.4,-7.9 -0.2,-2.9 0.8,-5.7 1.1,-8.5 3.1,0.9 6.3,1.5 8.9,3.6 2.1,1.7 2.7,4.7 4.9,6.3 1.3,1.1 3.3,1.7 4,3.4 1.3,2.6 0.7,5.6 1.8,8.3 1.4,2.1 5.5,2.6 6.8,0 1.4,-3.2 0.4,-6.8 0.2,-10.2 -0.3,-2.2 1.6,-3.7 2.2,-5.7 0.3,-1.8 -0.4,-3.5 -1,-5.1 -3.3,-0.9 -4.9,-4 -7,-6.3 -2.6,0.5 -5.1,1.7 -7.8,1.6 -0.2,0.7 -0.4,1.4 -0.6,2.1 -1.8,-1.3 -3.6,-2.6 -5.2,-4.2 -1.4,-1.4 -2.7,-3.1 -4.5,-4 -2.1,-1.1 -4.4,-1.8 -6.7,-2.5 0.1,-2.3 0.7,-4.7 1.9,-6.7 2.7,-3.8 -0.1,-9.8 -4.5,-10.8 -2,-0.5 -4,-0.1 -6,0.2 -1.3,2.3 -3.2,4.6 -3,7.4 0.5,2.4 1.6,4.6 1.8,7.1 -2.6,-2.8 -5.7,-5 -7.9,-8.1 -3,-4.1 -6.2,-8.1 -9.2,-12.2 -1,-1.5 -2.3,-3.2 -1.7,-5.1 0.4,-1.8 0.7,-3.7 0.5,-5.5 -1,1.1 -1.8,2.4 -2.5,3.8 -0.9,-0.7 -1.9,-1.4 -2.8,-2 -2.8,1.3 -5.8,2 -8.8,2.2 2.9,1.8 6.5,2.7 8.7,5.5 2.1,2.6 3,5.9 4.7,8.8 1.4,2.5 3.8,4.2 5.1,6.7 1.9,3.4 3.8,6.9 5.6,10.3 -1.7,-0.3 -3.6,-0.4 -5.2,-1.2 -1.9,-1.3 -3.4,-3.2 -5.6,-4 -3.1,-1.1 -6.4,-1.1 -9.5,-1.9 0.1,-1.5 0,-2.9 0.4,-4.3 0.3,-1.4 1.8,-2.1 2.3,-3.4 0.4,-3.8 -1,-8.1 -4.5,-10 -1.9,-1.1 -4.5,-0.9 -6,0.7 -1.9,1.8 -2.6,4.6 -2.8,7.2 -0.3,2 1.2,3.7 1.5,5.6 -0.1,1 -0.4,2 -0.7,3 -2.3,-1.7 -4.1,-3.8 -5.7,-6.1 -3.4,-4.7 -6.2,-9.8 -8.9,-14.9 -1.4,-2.9 -3.1,-5.8 -3.9,-8.9 -0.6,-3.2 2.2,-5.5 3.7,-7.9 -1.9,0.5 -3.9,1 -5.8,1.5 -1.5,-2.1 -2.4,-4.5 -3.5,-6.8 -0.6,1.2 -0.6,2.9 -1.9,3.6 -1.6,-0.3 -3,-1.1 -4.4,-1.8 -0.5,0.9 -1.1,1.9 -1.6,2.8 2.2,2.5 5.3,4.2 6.7,7.3 1.7,3.6 2.4,7.6 4,11.2 3.5,8.4 7.3,16.7 12.2,24.4 3.1,4.1 0.9,10.1 4.2,14.2 1.4,1.9 2.3,4.2 2.3,6.7 0.2,6.1 -1.8,11.9 -2.1,17.9 -0.1,4.7 0,9.4 0,14.2 0.4,9.2 1.5,18.5 0.7,27.7 -0.3,0 -1,0 -1.3,0.1 -2.4,0 -4.7,0 -7,0 -2.6,4.6 -6.1,8.5 -9.4,12.5 -2.1,2.6 -4.3,5.6 -4.4,9.2 -0.2,3.9 0.3,7.9 0.2,11.8 0,102.4 0,204.9 -0.1,307.3 -25,0 -49.9,0 -74.9,0 0,-110.9 0,-221.9 0,-332.8 2.5,-0.1 5,0.2 7.5,0.8 -0.5,0.3 -0.9,0.6 -1.4,1 1.1,0.2 2.2,0.5 3.3,0.7 0.1,-11.8 0,-23.6 0.2,-35.4 2,0.4 3.5,1.8 5.2,2.9 2,0.4 4.5,0.2 6.3,-1 3,-3.3 2.6,-9.3 -0.9,-12.1 -3.6,-1.9 -7.1,1.1 -10.4,2.3 -0.2,-2.4 -0.3,-4.7 -0.4,-7.1 -2.8,1.7 -6,2.7 -9.3,2.3 -0.1,-39 0,-78 0,-117 1.7,0 3.4,0 5.1,0 0.5,3.4 0.1,7.1 1.9,10.2 2.5,-5.2 1.2,-11.1 2.5,-16.5 2,-0.4 3.9,0 5.8,0.7 0.3,-1.1 0.8,-2.2 0.9,-3.4 -0.7,-0.9 -1.7,-1.4 -2.6,-2 -0.6,0.6 -1.2,1.2 -1.8,1.8 -1,-0.7 -2.1,-1.3 -3.1,-2 2,-2.1 5.1,-3.8 5.7,-6.9 0.1,-3.4 -3.5,-4.9 -6,-6.4 0.1,-1.9 -0.3,-4.3 1.2,-5.8 1.5,-1.1 3.4,-1.1 5.2,-1.6 -0.2,0.5 -0.6,1.4 -0.8,1.8 0.9,-1 1.7,-2 2.4,-3.1 -2,-1.3 -4.4,-1.8 -6.8,-1.2 -0.6,-1.8 -1.3,-3.5 -2.3,-5 -0.5,0.1 -1.4,0.2 -1.9,0.2 -0.7,2.1 -1.4,4.3 -1.3,6.6 0.2,2.4 0.7,4.8 0.9,7.3 -1.7,0 -3.5,0 -5.2,0 0,-7.8 -0.2,-15.7 -0.1,-23.5 0.7,0 1.3,-0.1 2,-0.1 0.1,2.5 0.6,5 2.1,7.1 1.8,-4.8 1.1,-9.9 0.9,-14.9 1.6,0.8 3.4,1.4 5.2,1.2 0,-7 -0.9,-14 -1.1,-21 -0.1,-3.3 -0.1,-6.5 -0.5,-9.8 -0.2,-1.3 -0.3,-2.8 -1.5,-3.7 -1,-0.6 -2.2,-0.7 -3.3,-1 -1.8,2.6 -1.9,5.7 -1.8,8.7 -0.7,0 -1.3,0 -2,0 0,-5.8 -0.1,-11.6 -0.2,-17.4 -0.1,-13.5 -0.6,-27 -0.1,-40.5 0.2,-9 0.4,-18.1 0.1,-27.1 -0.2,-4.3 -0.3,-8.6 -1.8,-12.6 -2.3,3.6 -2,8 -2.1,12.2 -0.3,16.3 0.2,32.7 0.4,49 -0.1,3.2 0.1,6.5 -0.6,9.7 -0.8,2.1 -1.7,4.2 -1.9,6.4 -2.3,0 -4.6,0 -7,0 0,-3 -0.1,-6.3 -2.1,-8.7 -2.3,2.3 -2.3,5.6 -2.1,8.7 -6.8,0.1 -13.8,1.2 -20.5,-0.5 -3.4,-1 -6.7,0.6 -10.1,0.5 -4,0 -8.1,0.3 -12.1,-0.5 -0.1,-0.4 -0.4,-1.3 -0.5,-1.7 -1.4,-0.1 -2.9,-0.2 -4.3,0 -0.7,0.4 -0.7,1.2 -1,1.9 -1.1,4.5 -0.3,9.2 -0.3,13.8 -1.4,-0.1 -2.9,-0.1 -4.3,-0.2 0,-1.7 0.1,-3.4 0.2,-5.1 -0.8,0.9 -1.5,1.7 -2.2,2.6 -2.4,-0.4 -4.9,-1.9 -7.3,-0.8 -1.8,0.7 -3.4,2.3 -3.5,4.3 -0.2,2.9 1.2,5.7 3.3,7.6 0.5,7.6 0.1,15.3 0.3,23 1.3,0 2.6,-0.1 3.8,-0.3 -0.5,8.5 -0.8,17 -0.6,25.5 0.2,3.8 0,7.9 1.9,11.4 1,1.9 1.7,4 1.5,6.2 -0.5,-0.1 -1.6,-0.2 -2.1,-0.2 -0.1,-1.6 0,-3.3 -0.7,-4.8 -0.6,-0.8 -1.5,-1.2 -2.2,-1.8 -0.6,0.4 -1.2,0.8 -1.8,1.2 -1,5.5 -0.8,11.1 -0.9,16.7 0,16.4 0.3,32.8 0.5,49.2 1.2,-0.1 2.4,-0.2 3.7,-0.4 0.7,-1.3 1.7,-2.3 2.9,-3.2 0.3,1.5 0.4,3 0.4,4.5 0.1,1.8 -0.4,4.7 1.6,5.7 1.2,-1.7 1.6,-3.7 1.8,-5.7 0.1,-2.7 -0.1,-5.4 -0.2,-8.1 1.4,0.2 3.5,-0.3 4.2,1.4 0.6,2.1 0.1,4.4 0,6.5 -0.3,6.3 -0.1,12.7 -0.2,19 -2,0 -4,0 -6,0 -0.1,-1.4 -0.1,-2.8 -0.2,-4.2 -1.1,0.3 -2.2,0.5 -3.3,0.8 -1.1,3.8 -0.9,7.8 -0.7,11.8 -2.5,-0.2 -5,-0.2 -7.3,0.7 0.7,0.7 1.3,1.6 2.2,2.1 1.6,0.3 3.2,0 4.8,-0.1 0,1.3 0.1,2.7 0.1,4 -0.8,-0.2 -1.6,-0.4 -2.4,-0.5 -1.7,1.8 -2,4.5 -1.4,6.8 -2.8,0.6 -5.5,1.2 -8.2,1.9 1,0.7 2,1.9 3.4,1.9 2.4,0.1 5.1,-0.1 7,1.7 3.2,2.9 3.9,7.4 4.4,11.5 0.4,5.4 -0.9,11.5 -5.4,14.9 -1.9,1.5 -4.3,0.7 -6.5,0.8 -1.5,0 -2.6,1 -3.8,1.6 4,2.1 8.6,2.2 13.1,2.1 0,1.1 0.1,2.3 0.1,3.5 -4.3,-1.9 -9.2,-3.1 -13.9,-2.2 -6.5,1 -12.3,5.5 -15.2,11.5 -1.8,3.5 -2.5,7.4 -2.4,11.2 0.1,4.3 -0.2,8.6 0.3,12.9 0.7,4.2 2.5,8.3 5.5,11.3 6.9,6.9 18.4,7.7 27,3.4 3.9,-1.8 6.8,-5 8.8,-8.7 0,5 0.1,10.1 0.2,15.1 -3.7,0.1 -7.5,-0.3 -11.1,-1.2 -0.5,1.5 -0.9,2.9 -1.3,4.4 -1.3,-1 -2.5,-2.1 -3.9,-2.8 -2,-0.5 -4,-0.2 -6,-0.2 -0.7,2.1 -1.9,4.1 -2.2,6.3 0,1.7 1.1,3.3 1.8,4.8 2,0.4 4.2,1.4 6.3,0.8 1.5,-1.4 3,-2.8 5.2,-3.1 -0.2,4.2 -0.4,8.4 -0.1,12.5 -1.8,1.1 -3.5,2.2 -5.3,3.2 0.4,0.9 0.7,1.8 1.1,2.7 1.4,0.6 2.8,1.3 4.2,1.9 0,6.5 -0.7,13.1 -0.1,19.7 3.8,0.3 7.6,-0.3 11.3,-0.3 0,50.9 0,101.7 0,152.6 -31.6,0.5 -63.1,1 -94.7,1.4 0,-92.1 0,-184.2 0,-276.3 0,-81.9 0,-163.7 0,-245.6 -50.7,-19.9 -101.4,-39.9 -152.2,-59.8 0,120.1 0,240.1 0,360.2 0,45.6 0,91.1 0,136.7 -15,0 -29.9,0 -44.9,0 -0.1,-11.8 0,-23.6 0,-35.3 0,-67.7 0,-135.5 0,-203.2 -20.6,0.1 -41.2,0.2 -61.8,0.3 -0.1,-33.8 -0.1,-67.5 -0.1,-101.3 -43.8,-0.4 -87.6,-0.6 -131.4,-0.9 0.2,22 0.3,44.1 0.6,66.1 -11,0.1 -22.1,0.1 -33.1,0.1 0,82.3 0,164.6 0,246.9 0,35.5 0,71.1 0,106.6 -23.2,22.4 -46.4,44.7 -69.6,67.1 -0.1,-116.6 0,-233.1 0,-349.7 -6,0 -12,0.1 -18,-0.1 -3.6,-0.2 -7.2,-0.1 -10.8,-0.1 -0.1,-8.8 -0.1,-17.6 -0.2,-26.4 -8.3,0.1 -16.6,0.2 -24.9,0.2 -0.1,-9.3 -0.3,-18.6 -0.4,-27.9 -6.7,0 -13.4,0.3 -20.1,0.4 -0.3,-8.3 -0.6,-16.5 -0.9,-24.8 -8.1,-0.1 -16.3,-0.3 -24.4,-0.5 0.1,-8.7 0.2,-17.4 0.4,-26 -8.6,0.3 -17.2,0.7 -25.8,1 -0.4,-7.8 -0.6,-15.5 -1,-23.3 -15.6,-5.3 -31.1,-10.8 -46.7,-16.1 -2.8,-39.3 -5.4,-78.5 -8.2,-117.8 -0.8,9.1 -0.9,18.2 -1.4,27.3 -1.4,30.2 -2.9,60.5 -4.3,90.7 -13.4,7 -26.8,13.9 -40.3,20.9 0,174.1 0,348.2 0,522.3 -0.1,0 -0.1,0 -0.2,0 v 79.2 c 91.5,0 183,-0.1 274.5,-0.1 30.3,-0.1 60.6,0.2 91,0.2 6.1,-0.6 12.2,-0.1 18.3,-0.3 222.1,-0.1 444.1,-0.2 666.2,-0.3 471.7,-0.2 943.5,-0.5 1415.2,-0.7 13.8,0.1 66.6,-0.2 80.4,0.2 4.8,0 9.6,-0.1 14.4,-0.2 1,-41.6 0.9,-84.2 0.9,-126.7 z m -1579.6,49.6 c -0.1,-102.1 -0.1,-204.3 -0.2,-306.4 16,0 32.1,0 48.1,0 0.1,102.1 0.1,204.2 0.2,306.3 -16,0.1 -32,0 -48.1,0.1 z"
   id="path316" />
</g>
</svg>
